<?xml version="1.0" encoding="utf-8"?>
<!-- Generator: Adobe Illustrator 26.0.1, SVG Export Plug-In . SVG Version: 6.00 Build 0)  -->
<svg version="1.1" id="Layer_1" xmlns="http://www.w3.org/2000/svg" xmlns:xlink="http://www.w3.org/1999/xlink" x="0px" y="0px"
	 viewBox="0 0 1920 1080" style="enable-background:new 0 0 1920 1080;" xml:space="preserve">
<style type="text/css">
	.st0{fill:#FFFFFF;fill-opacity:0;}
	.st1{opacity:5.000000e-02;fill:#FCFCFC;enable-background:new    ;}
	.st2{opacity:0.1;fill:#F9F9FA;enable-background:new    ;}
	.st3{opacity:0.14;fill:#F6F6F7;enable-background:new    ;}
	.st4{opacity:0.19;fill:#F3F3F5;enable-background:new    ;}
	.st5{opacity:0.24;fill:#F0F0F2;enable-background:new    ;}
	.st6{opacity:0.29;fill:#ECECF0;enable-background:new    ;}
	.st7{opacity:0.33;fill:#E9E9ED;enable-background:new    ;}
	.st8{opacity:0.38;fill:#E6E6EA;enable-background:new    ;}
	.st9{opacity:0.43;fill:#E3E3E8;enable-background:new    ;}
	.st10{opacity:0.48;fill:#E0E0E5;enable-background:new    ;}
	.st11{opacity:0.52;fill:#DDDDE3;enable-background:new    ;}
	.st12{opacity:0.57;fill:#DADAE0;enable-background:new    ;}
	.st13{opacity:0.62;fill:#D7D7DE;enable-background:new    ;}
	.st14{opacity:0.67;fill:#D4D4DB;enable-background:new    ;}
	.st15{opacity:0.71;fill:#D1D1D8;enable-background:new    ;}
	.st16{opacity:0.76;fill:#CDCDD6;enable-background:new    ;}
	.st17{opacity:0.81;fill:#CACAD3;enable-background:new    ;}
	.st18{opacity:0.86;fill:#C7C7D1;enable-background:new    ;}
	.st19{opacity:0.9;fill:#C4C4CE;enable-background:new    ;}
	.st20{opacity:0.95;fill:#C1C1CC;enable-background:new    ;}
	.st21{fill:#BEBEC9;}
	.st22{fill:#FFFFFF;}
	.st23{fill:#0C52BA;}
</style>
<g>
	<g id="Layer_1_00000109726335465732395170000012592088902200071582_">
		<g>
			<path class="st0" d="M1432.3,856.5c-16.9,16.8-44.1,16.8-61,0L993.3,478.5c-16.8-16.9-16.8-44.1,0-61l153.6-153.6
				c16.9-16.8,44.1-16.8,61,0l378.1,378.1c16.8,16.9,16.8,44.1,0,61L1432.3,856.5z"/>
			<path class="st1" d="M1429.7,854.1c-16.7,16.7-43.7,16.7-60.4,0L994.7,479.6c-16.7-16.7-16.7-43.7,0-60.4L1146.9,267
				c16.7-16.7,43.7-16.7,60.4,0l374.5,374.5c16.7,16.7,16.7,43.7,0,60.5L1429.7,854.1z"/>
			<path class="st2" d="M1427,851.6c-16.5,16.5-43.3,16.5-59.9,0L996.2,480.7c-16.5-16.5-16.5-43.3,0-59.9l150.7-150.7
				c16.5-16.5,43.3-16.5,59.9,0l371,371c16.5,16.5,16.5,43.3,0,59.9L1427,851.6z"/>
			<path class="st3" d="M1424.3,849.1c-16.4,16.3-42.9,16.3-59.3,0L997.7,481.8c-16.3-16.4-16.3-42.9,0-59.3l149.3-149.3
				c16.4-16.3,42.9-16.3,59.3,0l367.4,367.4c16.3,16.4,16.3,42.9,0,59.3L1424.3,849.1z"/>
			<path class="st4" d="M1421.7,846.7c-16.2,16.2-42.5,16.2-58.7,0L999.1,482.8c-16.2-16.2-16.2-42.5,0-58.7L1147,276.3
				c16.2-16.2,42.5-16.2,58.7,0l363.8,363.8c16.2,16.2,16.2,42.5,0,58.7L1421.7,846.7z"/>
			<path class="st5" d="M1419,844.2c-16.1,16-42.1,16-58.2,0l-360.2-360.3c-16-16.1-16-42.1,0-58.1L1147,279.4
				c16.1-16,42.1-16,58.1,0l360.3,360.3c16,16.1,16,42.1,0,58.2L1419,844.2z"/>
			<path class="st6" d="M1416.3,841.7c-15.9,15.9-41.7,15.9-57.6,0L1002.1,485c-15.9-15.9-15.9-41.7,0-57.6L1147,282.5
				c15.9-15.9,41.7-15.9,57.6,0l356.7,356.7c15.9,15.9,15.9,41.7,0,57.6L1416.3,841.7z"/>
			<path class="st7" d="M1413.7,839.3c-15.8,15.7-41.2,15.7-57,0l-353.1-353.1c-15.7-15.8-15.7-41.2,0-57L1147,285.6
				c15.8-15.7,41.2-15.7,57,0l353.1,353.1c15.7,15.8,15.7,41.2,0,57L1413.7,839.3z"/>
			<path class="st8" d="M1411,836.8c-15.6,15.5-40.8,15.5-56.4,0L1005,487.2c-15.5-15.6-15.5-40.8,0-56.4l142-142
				c15.6-15.6,40.8-15.6,56.4,0L1553,638.4c15.5,15.6,15.5,40.8,0,56.4L1411,836.8z"/>
			<path class="st9" d="M1408.4,834.3c-15.4,15.4-40.4,15.4-55.8,0l-346-346c-15.4-15.4-15.4-40.4,0-55.8l140.6-140.6
				c15.4-15.4,40.4-15.4,55.8,0l346,346c15.4,15.4,15.4,40.4,0,55.8L1408.4,834.3z"/>
			<path class="st10" d="M1405.7,831.8c-15.3,15.2-40,15.2-55.3,0L1008,489.4c-15.2-15.3-15.2-40,0-55.3L1147.1,295
				c15.3-15.2,40-15.2,55.3,0l342.5,342.5c15.2,15.3,15.2,40,0,55.3L1405.7,831.8z"/>
			<path class="st11" d="M1403,829.4c-15.1,15.1-39.6,15.1-54.7,0l-338.9-338.9c-15.1-15.1-15.1-39.6,0-54.7l137.7-137.7
				c15.1-15.1,39.6-15.1,54.7,0L1540.7,637c15.1,15.1,15.1,39.6,0,54.7L1403,829.4z"/>
			<path class="st12" d="M1400.4,826.9c-15,14.9-39.2,14.9-54.1,0l-335.3-335.3c-14.9-15-14.9-39.2,0-54.1l136.2-136.2
				c15-14.9,39.2-14.9,54.1,0l335.3,335.3c14.9,15,14.9,39.2,0,54.1L1400.4,826.9z"/>
			<path class="st13" d="M1397.7,824.4c-14.8,14.8-38.7,14.8-53.5,0l-331.8-331.8c-14.8-14.8-14.8-38.8,0-53.5l134.8-134.8
				c14.8-14.8,38.7-14.8,53.5,0l331.8,331.8c14.8,14.8,14.8,38.7,0,53.5L1397.7,824.4z"/>
			<path class="st14" d="M1395,822c-14.6,14.6-38.4,14.6-53,0l-328.2-328.2c-14.6-14.6-14.6-38.4,0-53l133.3-133.3
				c14.6-14.6,38.4-14.6,53,0l328.2,328.2c14.6,14.6,14.6,38.4,0,53L1395,822z"/>
			<path class="st15" d="M1392.4,819.5c-14.5,14.4-37.9,14.4-52.4,0l-324.6-324.7c-14.4-14.5-14.4-37.9,0-52.4l131.9-131.9
				c14.5-14.4,37.9-14.4,52.4,0l324.7,324.6c14.4,14.5,14.4,37.9,0,52.4L1392.4,819.5z"/>
			<path class="st16" d="M1389.7,817c-14.3,14.3-37.5,14.3-51.8,0l-321.1-321c-14.3-14.3-14.3-37.5,0-51.8l130.5-130.5
				c14.3-14.3,37.5-14.3,51.8,0l321.1,321.1c14.3,14.3,14.3,37.5,0,51.8L1389.7,817z"/>
			<path class="st17" d="M1387,814.6c-14.2,14.1-37.1,14.1-51.2,0L1018.3,497c-14.1-14.2-14.1-37.1,0-51.2l129-129
				c14.2-14.1,37.1-14.1,51.2,0L1516,634.3c14.1,14.2,14.1,37.1,0,51.2L1387,814.6z"/>
			<path class="st18" d="M1384.4,812.1c-14,14-36.7,14-50.7,0l-314-314c-14-14-14-36.7,0-50.7l127.6-127.5c14-14,36.7-14,50.7,0
				l314,314c14,14,14,36.7,0,50.7L1384.4,812.1z"/>
			<path class="st19" d="M1381.7,809.6c-13.8,13.8-36.3,13.8-50.1,0l-310.4-310.4c-13.8-13.8-13.8-36.2,0-50.1L1147.3,323
				c13.8-13.8,36.3-13.8,50.1,0l310.4,310.4c13.8,13.8,13.8,36.3,0,50.1L1381.7,809.6z"/>
			<path class="st20" d="M1379,807.2c-13.7,13.7-35.8,13.7-49.5,0c0,0,0,0,0,0l-306.8-306.8c-13.7-13.7-13.7-35.8,0-49.5
				l124.7-124.7c13.7-13.7,35.8-13.7,49.5,0L1503.7,633c13.7,13.7,13.7,35.8,0,49.5c0,0,0,0,0,0L1379,807.2z"/>
			<path class="st21" d="M1376.4,804.7c-13.5,13.5-35.4,13.5-48.9,0l-303.3-303.3c-13.5-13.5-13.5-35.5,0-49c0,0,0,0,0,0
				l123.2-123.2c13.5-13.5,35.5-13.5,49,0l303.3,303.3c13.5,13.5,13.5,35.5,0,49c0,0,0,0,0,0L1376.4,804.7z"/>
		</g>
		<path class="st22" d="M1367.7,814.4c-13.3,13.2-34.7,13.2-48,0l-330-330c-13.2-13.3-13.2-34.7,0-48l134.1-134.1
			c13.3-13.2,34.7-13.2,48,0l330,330c13.2,13.3,13.2,34.7,0,48L1367.7,814.4z"/>
		
			<image style="overflow:visible;enable-background:new    ;" width="540" height="540" xlink:href="FE70319DD0B180BB.png"  transform="matrix(1 0 0 1 976 288)">
		</image>
		<path class="st23" d="M1494,640.2c8.8,8.9,8.8,23.1,0,32l-134.1,134.1c-8.9,8.8-23.1,8.8-32,0l-330-330c-8.8-8.9-8.8-23.1,0-32
			l134.1-134c8.9-8.8,23.1-8.8,32,0L1494,640.2z"/>
		<g>
			<path class="st0" d="M1417.3,1343.5c-16.9,16.8-44.1,16.8-61,0L978.3,965.4c-16.8-16.9-16.8-44.1,0-61l153.6-153.6
				c16.9-16.8,44.1-16.8,61,0l378.1,378.1c16.8,16.9,16.8,44.1,0,61L1417.3,1343.5z"/>
			<path class="st1" d="M1414.7,1341c-16.7,16.7-43.7,16.7-60.4,0L979.7,966.5c-16.7-16.7-16.7-43.7,0-60.4l152.2-152.2
				c16.7-16.7,43.7-16.7,60.4,0l374.5,374.5c16.7,16.7,16.7,43.7,0,60.4L1414.7,1341z"/>
			<path class="st2" d="M1412,1338.5c-16.5,16.5-43.3,16.5-59.9,0L981.2,967.6c-16.5-16.5-16.5-43.3,0-59.9L1131.9,757
				c16.5-16.5,43.3-16.5,59.9,0l371,370.9c16.5,16.5,16.5,43.3,0,59.9L1412,1338.5z"/>
			<path class="st3" d="M1409.3,1336.1c-16.4,16.3-42.9,16.3-59.3,0L982.7,968.7c-16.3-16.4-16.3-42.9,0-59.3l149.3-149.3
				c16.4-16.3,42.9-16.3,59.3,0l367.4,367.4c16.3,16.4,16.3,42.9,0,59.3L1409.3,1336.1z"/>
			<path class="st4" d="M1406.7,1333.6c-16.2,16.2-42.5,16.2-58.7,0L984.1,969.8c-16.2-16.2-16.2-42.5,0-58.7L1132,763.2
				c16.2-16.2,42.5-16.2,58.7,0l363.8,363.8c16.2,16.2,16.2,42.5,0,58.7L1406.7,1333.6z"/>
			<path class="st5" d="M1404,1331.1c-16.1,16-42.1,16-58.2,0L985.6,970.9c-16-16.1-16-42.1,0-58.2L1132,766.4
				c16.1-16,42.1-16,58.1,0l360.3,360.3c16,16.1,16,42.1,0,58.1L1404,1331.1z"/>
			<path class="st6" d="M1401.3,1328.7c-15.9,15.9-41.7,15.9-57.6,0L987.1,972c-15.9-15.9-15.9-41.7,0-57.6l144.9-145
				c15.9-15.9,41.7-15.9,57.6,0l356.7,356.7c15.9,15.9,15.9,41.7,0,57.6L1401.3,1328.7z"/>
			<path class="st7" d="M1398.7,1326.2c-15.8,15.7-41.2,15.7-57,0L988.5,973c-15.7-15.8-15.7-41.2,0-57L1132,772.6
				c15.7-15.7,41.3-15.7,57,0l353.1,353.1c15.7,15.8,15.7,41.2,0,57L1398.7,1326.2z"/>
			<path class="st8" d="M1396,1323.7c-15.6,15.6-40.8,15.6-56.4,0L990,974.1c-15.5-15.6-15.5-40.8,0-56.4l142-142
				c15.6-15.6,40.8-15.6,56.4,0l349.6,349.6c15.5,15.6,15.5,40.8,0,56.4L1396,1323.7z"/>
			<path class="st9" d="M1393.4,1321.2c-15.4,15.4-40.4,15.4-55.8,0l-346-346c-15.4-15.4-15.4-40.4,0-55.8l140.6-140.6
				c15.4-15.4,40.4-15.4,55.8,0l346,346c15.4,15.4,15.4,40.4,0,55.8L1393.4,1321.2z"/>
			<path class="st10" d="M1390.7,1318.8c-15.3,15.2-40,15.2-55.3,0L993,976.3c-15.2-15.3-15.2-40,0-55.3l139.1-139.1
				c15.3-15.2,40-15.2,55.3,0l342.5,342.5c15.2,15.3,15.2,40,0,55.3L1390.7,1318.8z"/>
			<path class="st11" d="M1388,1316.3c-15.1,15.1-39.6,15.1-54.7,0L994.4,977.4c-15.1-15.1-15.1-39.6,0-54.7L1132.1,785
				c15.1-15.1,39.6-15.1,54.7,0l338.9,338.9c15.1,15.1,15.1,39.6,0,54.7L1388,1316.3z"/>
			<path class="st12" d="M1385.4,1313.8c-15,14.9-39.2,14.9-54.1,0L995.9,978.5c-14.9-15-14.9-39.2,0-54.1l136.2-136.2
				c15-14.9,39.2-14.9,54.1,0l335.3,335.3c14.9,15,14.9,39.2,0,54.1L1385.4,1313.8z"/>
			<path class="st13" d="M1382.7,1311.4c-14.8,14.8-38.7,14.8-53.5,0L997.4,979.6c-14.8-14.8-14.8-38.8,0-53.5l134.8-134.8
				c14.8-14.8,38.7-14.8,53.5,0l331.8,331.7c14.8,14.8,14.8,38.8,0,53.6L1382.7,1311.4z"/>
			<path class="st14" d="M1380,1308.9c-14.6,14.6-38.4,14.6-53,0L998.8,980.7c-14.6-14.6-14.6-38.4,0-53l133.3-133.4
				c14.6-14.6,38.4-14.6,53,0l328.2,328.2c14.6,14.6,14.6,38.4,0,53L1380,1308.9z"/>
			<path class="st15" d="M1377.4,1306.4c-14.5,14.4-37.9,14.4-52.4,0l-324.6-324.6c-14.4-14.5-14.4-37.9,0-52.4l131.9-131.9
				c14.5-14.4,37.9-14.4,52.4,0l324.7,324.7c14.4,14.5,14.4,37.9,0,52.4L1377.4,1306.4z"/>
			<path class="st16" d="M1374.7,1304c-14.3,14.3-37.5,14.3-51.8,0l-321.1-321.1c-14.3-14.3-14.3-37.5,0-51.8l130.5-130.5
				c14.3-14.3,37.5-14.3,51.8,0l321.1,321.1c14.3,14.3,14.3,37.5,0,51.8L1374.7,1304z"/>
			<path class="st17" d="M1372,1301.5c-14.2,14.1-37.1,14.1-51.2,0L1003.3,984c-14.1-14.2-14.1-37.1,0-51.2l129-129
				c14.2-14.1,37.1-14.1,51.2,0l317.5,317.5c14.1,14.2,14.1,37.1,0,51.2L1372,1301.5z"/>
			<path class="st18" d="M1369.4,1299c-14,14-36.7,14-50.7,0l-314-314c-14-14-14-36.7,0-50.7l127.6-127.5c14-14,36.7-14,50.7,0
				l314,314c14,14,14,36.7,0,50.7L1369.4,1299z"/>
			<path class="st19" d="M1366.7,1296.6c-13.8,13.8-36.2,13.8-50.1,0l-310.4-310.4c-13.8-13.8-13.8-36.3,0-50.1L1132.3,810
				c13.8-13.8,36.3-13.8,50.1,0l310.4,310.4c13.8,13.8,13.8,36.3,0,50.1L1366.7,1296.6z"/>
			<path class="st20" d="M1364,1294.1c-13.7,13.7-35.8,13.7-49.5,0l-306.8-306.8c-13.7-13.7-13.7-35.8,0-49.5c0,0,0,0,0,0
				l124.7-124.7c13.7-13.7,35.8-13.7,49.5,0l306.8,306.9c13.7,13.7,13.7,35.8,0,49.5c0,0,0,0,0,0L1364,1294.1z"/>
			<path class="st21" d="M1361.4,1291.6c-13.5,13.5-35.4,13.5-48.9,0l-303.3-303.3c-13.5-13.5-13.5-35.5,0-49c0,0,0,0,0,0
				l123.2-123.2c13.5-13.5,35.5-13.5,49,0c0,0,0,0,0,0l303.3,303.3c13.5,13.5,13.5,35.5,0,49c0,0,0,0,0,0L1361.4,1291.6z"/>
		</g>
		<path class="st22" d="M1352.7,1301.3c-13.3,13.2-34.7,13.2-48,0l-330-330c-13.2-13.3-13.2-34.7,0-48l134.1-134
			c13.3-13.2,34.7-13.2,48,0l330,330c13.2,13.3,13.2,34.7,0,48L1352.7,1301.3z"/>
		
			<image style="overflow:visible;enable-background:new    ;" width="540" height="540" xlink:href="FE70319DD0B180B9.png"  transform="matrix(1 0 0 1 961 775)">
		</image>
		<path class="st23" d="M1479,1127.1c8.8,8.9,8.8,23.1,0,32l-134.1,134.1c-8.9,8.8-23.1,8.8-32,0l-330-330c-8.8-8.9-8.8-23.1,0-32
			l134.1-134c8.9-8.8,23.1-8.8,32,0L1479,1127.1z"/>
		<g>
			<path class="st0" d="M1582.3,496.7c-16.9,16.8-44.1,16.8-61,0l-378.1-378.1c-16.8-16.9-16.8-44.1,0-61l153.6-153.6
				c16.9-16.8,44.1-16.8,61,0l378.1,378.1c16.8,16.9,16.8,44.1,0,61L1582.3,496.7z"/>
			<path class="st1" d="M1579.7,494.3c-16.7,16.7-43.7,16.7-60.4,0l-374.5-374.5c-16.7-16.7-16.7-43.7,0-60.4l152.1-152.2
				c16.7-16.7,43.7-16.7,60.4,0l374.5,374.5c16.7,16.7,16.7,43.7,0,60.4L1579.7,494.3z"/>
			<path class="st2" d="M1577,491.8c-16.5,16.5-43.3,16.5-59.9,0l-370.9-371c-16.5-16.5-16.5-43.3,0-59.9l150.7-150.7
				c16.5-16.5,43.3-16.5,59.9,0l371,370.9c16.5,16.5,16.5,43.3,0,59.9L1577,491.8z"/>
			<path class="st3" d="M1574.3,489.3c-16.4,16.3-42.9,16.3-59.3,0L1147.7,122c-16.3-16.4-16.3-42.9,0-59.3l149.3-149.3
				c16.4-16.3,42.9-16.3,59.3,0l367.4,367.4c16.3,16.4,16.3,42.9,0,59.3L1574.3,489.3z"/>
			<path class="st4" d="M1571.7,486.9c-16.2,16.2-42.5,16.2-58.7,0L1149.1,123c-16.2-16.2-16.2-42.5,0-58.7L1297-83.5
				c16.2-16.2,42.5-16.2,58.7,0l363.8,363.8c16.2,16.2,16.2,42.5,0,58.7L1571.7,486.9z"/>
			<path class="st5" d="M1569,484.4c-16.1,16-42.1,16-58.2,0l-360.2-360.3c-16-16.1-16-42.1,0-58.1L1297-80.4
				c16.1-16,42.1-16,58.1,0l360.3,360.3c16,16.1,16,42.1,0,58.1L1569,484.4z"/>
			<path class="st6" d="M1566.3,481.9c-15.9,15.9-41.7,15.9-57.6,0l-356.7-356.7c-15.9-15.9-15.9-41.7,0-57.6L1297-77.3
				c15.9-15.9,41.7-15.9,57.6,0l356.7,356.7c15.9,15.9,15.9,41.7,0,57.6L1566.3,481.9z"/>
			<path class="st7" d="M1563.7,479.5c-15.7,15.7-41.3,15.7-57,0l-353.1-353.1c-15.7-15.8-15.7-41.2,0-57L1297-74.2
				c15.7-15.7,41.3-15.7,57,0L1707.2,279c15.7,15.8,15.7,41.2,0,57L1563.7,479.5z"/>
			<path class="st8" d="M1561,477c-15.6,15.6-40.8,15.6-56.4,0L1155,127.4c-15.5-15.6-15.5-40.8,0-56.4l142-142
				c15.6-15.5,40.8-15.5,56.4,0L1703,278.6c15.5,15.6,15.5,40.8,0,56.4L1561,477z"/>
			<path class="st9" d="M1558.4,474.5c-15.4,15.4-40.4,15.4-55.8,0l-346-346c-15.4-15.4-15.4-40.4,0-55.8l140.6-140.6
				c15.4-15.4,40.4-15.4,55.8,0l346,346c15.4,15.4,15.4,40.4,0,55.9L1558.4,474.5z"/>
			<path class="st10" d="M1555.7,472c-15.3,15.2-40,15.2-55.3,0L1158,129.6c-15.2-15.3-15.2-40,0-55.3l139.1-139.1
				c15.3-15.2,40-15.2,55.3,0l342.5,342.5c15.2,15.3,15.2,40,0,55.3L1555.7,472z"/>
			<path class="st11" d="M1553,469.6c-15.1,15.1-39.6,15.1-54.7,0l-338.9-338.9c-15.1-15.1-15.1-39.6,0-54.7l137.7-137.7
				c15.1-15.1,39.6-15.1,54.7,0l338.9,338.9c15.1,15.1,15.1,39.6,0,54.7L1553,469.6z"/>
			<path class="st12" d="M1550.4,467.1c-15,14.9-39.2,14.9-54.1,0l-335.3-335.3c-14.9-15-14.9-39.2,0-54.1l136.2-136.2
				c15-14.9,39.2-14.9,54.1,0l335.3,335.3c14.9,15,14.9,39.2,0,54.1L1550.4,467.1z"/>
			<path class="st13" d="M1547.7,464.6c-14.8,14.8-38.7,14.8-53.5,0l-331.8-331.8c-14.8-14.8-14.8-38.8,0-53.6l134.8-134.8
				c14.8-14.8,38.7-14.8,53.5,0l331.8,331.8c14.8,14.8,14.8,38.8,0,53.5L1547.7,464.6z"/>
			<path class="st14" d="M1545,462.2c-14.6,14.6-38.4,14.6-53,0L1163.8,134c-14.6-14.6-14.6-38.4,0-53l133.3-133.4
				c14.6-14.6,38.4-14.6,53,0l328.2,328.2c14.6,14.6,14.6,38.4,0,53L1545,462.2z"/>
			<path class="st15" d="M1542.4,459.7c-14.5,14.4-37.9,14.4-52.4,0l-324.7-324.7c-14.4-14.5-14.4-37.9,0-52.4l131.9-131.9
				c14.5-14.4,37.9-14.4,52.4,0l324.7,324.6c14.4,14.5,14.4,37.9,0,52.4L1542.4,459.7z"/>
			<path class="st16" d="M1539.7,457.2c-14.3,14.3-37.5,14.3-51.8,0l-321.1-321.1c-14.3-14.3-14.3-37.5,0-51.8l130.4-130.4
				c14.3-14.3,37.5-14.3,51.8,0L1670.2,275c14.3,14.3,14.3,37.5,0,51.8L1539.7,457.2z"/>
			<path class="st17" d="M1537,454.8c-14.2,14.1-37.1,14.1-51.2,0l-317.5-317.5c-14.1-14.2-14.1-37.1,0-51.2l129-129
				c14.2-14.1,37.1-14.1,51.2,0L1666,274.5c14.1,14.2,14.1,37.1,0,51.2L1537,454.8z"/>
			<path class="st18" d="M1534.4,452.3c-14,14-36.7,14-50.7,0l-314-314c-14-14-14-36.7,0-50.7l127.6-127.5c14-14,36.7-14,50.7,0
				l314,314c14,14,14,36.7,0,50.7L1534.4,452.3z"/>
			<path class="st19" d="M1531.7,449.8c-13.8,13.8-36.2,13.8-50.1,0l-310.4-310.4c-13.8-13.8-13.8-36.3,0-50.1l126.1-126.1
				c13.8-13.8,36.3-13.8,50.1,0l310.4,310.4c13.8,13.8,13.8,36.3,0,50.1L1531.7,449.8z"/>
			<path class="st20" d="M1529,447.4c-13.7,13.7-35.8,13.7-49.5,0l-306.8-306.8c-13.7-13.7-13.7-35.8,0-49.5c0,0,0,0,0,0
				l124.7-124.7c13.7-13.7,35.8-13.7,49.5,0l306.8,306.9c13.7,13.7,13.7,35.8,0,49.5L1529,447.4z"/>
			<path class="st21" d="M1526.4,444.9c-13.5,13.5-35.4,13.5-48.9,0l-303.3-303.3c-13.5-13.5-13.5-35.5,0-49c0,0,0,0,0,0
				l123.2-123.2c13.5-13.5,35.5-13.5,49,0c0,0,0,0,0,0l303.3,303.3c13.5,13.5,13.5,35.4,0,49L1526.4,444.9z"/>
		</g>
		<path class="st22" d="M1517.7,454.6c-13.3,13.2-34.7,13.2-48,0l-330-330c-13.2-13.3-13.2-34.7,0-48l134.1-134
			c13.3-13.2,34.7-13.2,48,0l330,330c13.2,13.3,13.2,34.7,0,48L1517.7,454.6z"/>
		
			<image style="overflow:visible;enable-background:new    ;" width="540" height="541" xlink:href="FE70319DD0B180BF.png"  transform="matrix(1 0 0 1 1126 -72)">
		</image>
		<path class="st23" d="M1644,280.4c8.8,8.9,8.8,23.1,0,32l-134.1,134.1c-8.8,8.8-23.2,8.8-32,0l-330-330c-8.8-8.9-8.8-23.1,0-32
			l134.1-134c8.9-8.8,23.1-8.8,32,0L1644,280.4z"/>
		<g>
			<path class="st0" d="M1876.3,1289.2c-16.9,16.8-44.1,16.8-61,0l-378.1-378.1c-16.8-16.9-16.8-44.1,0-61l153.6-153.6
				c16.9-16.8,44.1-16.8,61,0l378.1,378.1c16.8,16.9,16.8,44.1,0,61L1876.3,1289.2z"/>
			<path class="st1" d="M1873.7,1286.8c-16.7,16.7-43.7,16.7-60.4,0l-374.5-374.5c-16.7-16.7-16.7-43.7,0-60.4l152.2-152.1
				c16.7-16.7,43.7-16.7,60.4,0l374.5,374.5c16.7,16.7,16.7,43.7,0,60.4L1873.7,1286.8z"/>
			<path class="st2" d="M1871,1284.3c-16.5,16.5-43.3,16.5-59.9,0l-370.9-370.9c-16.5-16.5-16.5-43.3,0-59.9l150.7-150.7
				c16.5-16.5,43.3-16.5,59.9,0l371,370.9c16.5,16.5,16.5,43.3,0,59.9L1871,1284.3z"/>
			<path class="st3" d="M1868.3,1281.8c-16.4,16.3-42.9,16.3-59.3,0l-367.4-367.4c-16.3-16.4-16.3-42.9,0-59.3l149.3-149.2
				c16.4-16.3,42.9-16.3,59.3,0l367.4,367.4c16.3,16.4,16.3,42.9,0,59.3L1868.3,1281.8z"/>
			<path class="st4" d="M1865.7,1279.3c-16.2,16.2-42.5,16.2-58.7,0l-363.8-363.8c-16.2-16.2-16.2-42.5,0-58.7L1591,709
				c16.2-16.2,42.5-16.2,58.7,0l363.8,363.8c16.2,16.2,16.2,42.5,0,58.7L1865.7,1279.3z"/>
			<path class="st5" d="M1863,1276.9c-16.1,16-42.1,16-58.2,0l-360.2-360.3c-16-16.1-16-42.1,0-58.1L1591,712.1
				c16.1-16,42.1-16,58.1,0l360.3,360.3c16,16.1,16,42.1,0,58.2L1863,1276.9z"/>
			<path class="st6" d="M1860.3,1274.4c-15.9,15.9-41.7,15.9-57.6,0l-356.7-356.7c-15.9-15.9-15.9-41.7,0-57.6L1591,715.2
				c15.9-15.9,41.7-15.9,57.6,0l356.7,356.7c15.9,15.9,15.9,41.7,0,57.6L1860.3,1274.4z"/>
			<path class="st7" d="M1857.7,1271.9c-15.7,15.7-41.3,15.7-57,0l-353.1-353.1c-15.7-15.8-15.7-41.2,0-57L1591,718.3
				c15.8-15.7,41.2-15.7,57,0l353.1,353.1c15.7,15.8,15.7,41.2,0,57L1857.7,1271.9z"/>
			<path class="st8" d="M1855,1269.5c-15.6,15.5-40.8,15.5-56.4,0L1449,919.9c-15.5-15.6-15.5-40.8,0-56.4l142-142
				c15.6-15.5,40.8-15.5,56.4,0l349.6,349.5c15.5,15.6,15.5,40.8,0,56.4L1855,1269.5z"/>
			<path class="st9" d="M1852.4,1267c-15.4,15.4-40.4,15.4-55.8,0l-346-346c-15.4-15.4-15.4-40.4,0-55.8l140.6-140.6
				c15.4-15.4,40.4-15.4,55.8,0l346,346c15.4,15.4,15.4,40.4,0,55.8L1852.4,1267z"/>
			<path class="st10" d="M1849.7,1264.5c-15.3,15.2-40,15.2-55.3,0L1452,922.1c-15.2-15.3-15.2-40,0-55.3l139.1-139.1
				c15.3-15.2,40-15.2,55.3,0l342.5,342.5c15.2,15.3,15.2,40,0,55.3L1849.7,1264.5z"/>
			<path class="st11" d="M1847,1262.1c-15.1,15.1-39.6,15.1-54.7,0l-338.9-338.9c-15.1-15.1-15.1-39.6,0-54.7l137.7-137.7
				c15.1-15.1,39.6-15.1,54.7,0l338.9,338.9c15.1,15.1,15.1,39.6,0,54.7L1847,1262.1z"/>
			<path class="st12" d="M1844.4,1259.6c-15,14.9-39.2,14.9-54.1,0l-335.3-335.3c-14.9-15-14.9-39.2,0-54.1l136.2-136.2
				c15-14.9,39.2-14.9,54.1,0l335.3,335.3c14.9,15,14.9,39.2,0,54.1L1844.4,1259.6z"/>
			<path class="st13" d="M1841.7,1257.1c-14.8,14.8-38.7,14.8-53.5,0l-331.8-331.8c-14.8-14.8-14.8-38.8,0-53.5L1591.2,737
				c14.8-14.8,38.7-14.8,53.5,0l331.8,331.8c14.8,14.8,14.8,38.8,0,53.6L1841.7,1257.1z"/>
			<path class="st14" d="M1839,1254.7c-14.6,14.6-38.4,14.6-53,0l-328.2-328.2c-14.6-14.6-14.6-38.4,0-53l133.3-133.4
				c14.6-14.6,38.4-14.6,53,0l328.2,328.2c14.6,14.6,14.6,38.4,0,53L1839,1254.7z"/>
			<path class="st15" d="M1836.4,1252.2c-14.5,14.4-37.9,14.4-52.4,0l-324.7-324.7c-14.4-14.5-14.4-37.9,0-52.4l131.9-131.9
				c14.5-14.4,37.9-14.4,52.4,0l324.7,324.7c14.4,14.5,14.4,37.9,0,52.4L1836.4,1252.2z"/>
			<path class="st16" d="M1833.7,1249.7c-14.3,14.3-37.5,14.3-51.8,0l-321.1-321.1c-14.3-14.3-14.3-37.5,0-51.8l130.4-130.5
				c14.3-14.3,37.5-14.3,51.8,0l321.1,321.1c14.3,14.3,14.3,37.5,0,51.8L1833.7,1249.7z"/>
			<path class="st17" d="M1831,1247.3c-14.2,14.1-37.1,14.1-51.2,0l-317.5-317.5c-14.1-14.2-14.1-37.1,0-51.2l129-129
				c14.2-14.1,37.1-14.1,51.2,0L1960,1067c14.1,14.2,14.1,37.1,0,51.2L1831,1247.3z"/>
			<path class="st18" d="M1828.4,1244.8c-14,14-36.7,14-50.7,0l-314-314c-14-14-14-36.7,0-50.7l127.6-127.6c14-14,36.7-14,50.7,0
				l314,314c14,14,14,36.7,0,50.7L1828.4,1244.8z"/>
			<path class="st19" d="M1825.7,1242.3c-13.8,13.8-36.2,13.8-50.1,0l-310.4-310.4c-13.8-13.8-13.8-36.3,0-50.1l126.1-126.1
				c13.8-13.8,36.3-13.8,50.1,0l310.4,310.4c13.8,13.8,13.8,36.3,0,50.1L1825.7,1242.3z"/>
			<path class="st20" d="M1823,1239.8c-13.7,13.7-35.8,13.7-49.5,0c0,0,0,0,0,0L1466.7,933c-13.7-13.7-13.7-35.8,0-49.5l124.7-124.7
				c13.7-13.7,35.8-13.7,49.5,0l306.8,306.8c13.7,13.7,13.7,35.8,0,49.5L1823,1239.8z"/>
			<path class="st21" d="M1820.4,1237.4c-13.5,13.5-35.4,13.5-48.9,0l-303.3-303.3c-13.5-13.5-13.5-35.5,0-49c0,0,0,0,0,0
				l123.2-123.2c13.5-13.5,35.5-13.5,49,0c0,0,0,0,0,0l303.3,303.3c13.5,13.5,13.5,35.5,0,49c0,0,0,0,0,0L1820.4,1237.4z"/>
		</g>
		<path class="st22" d="M1811.7,1247.1c-13.3,13.2-34.7,13.2-48,0l-330-330c-13.2-13.3-13.2-34.7,0-48L1567.8,735
			c13.3-13.2,34.7-13.2,48,0l330,330c13.2,13.3,13.2,34.7,0,48L1811.7,1247.1z"/>
		
			<image style="overflow:visible;enable-background:new    ;" width="540" height="540" xlink:href="FE70319DD0B180B8.png"  transform="matrix(1 0 0 1 1420 721)">
		</image>
		<path class="st23" d="M1938,1072.8c8.8,8.9,8.8,23.1,0,32l-134.1,134.1c-8.9,8.8-23.1,8.8-32,0l-330-330c-8.8-8.9-8.8-23.1,0-32
			l134.1-134c8.9-8.8,23.1-8.8,32,0L1938,1072.8z"/>
		<g>
			<path class="st0" d="M2024.3,924.2c-16.9,16.8-44.1,16.8-61,0l-378.1-378.1c-16.8-16.9-16.8-44.1,0-61l153.6-153.6
				c16.9-16.8,44.1-16.8,61,0l378.1,378.1c16.8,16.9,16.8,44.1,0,61L2024.3,924.2z"/>
			<path class="st1" d="M2021.7,921.8c-16.7,16.7-43.7,16.7-60.4,0l-374.5-374.5c-16.7-16.7-16.7-43.7,0-60.4l152.2-152.1
				c16.7-16.7,43.7-16.7,60.4,0l374.5,374.5c16.7,16.7,16.7,43.7,0,60.4L2021.7,921.8z"/>
			<path class="st2" d="M2019,919.3c-16.5,16.5-43.3,16.5-59.9,0l-370.9-370.9c-16.5-16.5-16.5-43.3,0-59.9l150.7-150.7
				c16.5-16.5,43.3-16.5,59.9,0l371,370.9c16.5,16.5,16.5,43.3,0,59.9L2019,919.3z"/>
			<path class="st3" d="M2016.3,916.8c-16.4,16.3-42.9,16.3-59.3,0l-367.4-367.4c-16.3-16.4-16.3-42.9,0-59.3l149.3-149.2
				c16.4-16.3,42.9-16.3,59.3,0l367.4,367.4c16.3,16.4,16.3,42.9,0,59.3L2016.3,916.8z"/>
			<path class="st4" d="M2013.7,914.3c-16.2,16.2-42.5,16.2-58.7,0l-363.8-363.8c-16.2-16.2-16.2-42.5,0-58.7L1739,344
				c16.2-16.2,42.5-16.2,58.7,0l363.8,363.8c16.2,16.2,16.2,42.5,0,58.7L2013.7,914.3z"/>
			<path class="st5" d="M2011,911.9c-16.1,16-42.1,16-58.2,0l-360.2-360.3c-16-16.1-16-42.1,0-58.1L1739,347.1
				c16.1-16,42.1-16,58.1,0l360.3,360.3c16,16.1,16,42.1,0,58.2L2011,911.9z"/>
			<path class="st6" d="M2008.3,909.4c-15.9,15.9-41.7,15.9-57.6,0l-356.7-356.7c-15.9-15.9-15.9-41.7,0-57.6L1739,350.2
				c15.9-15.9,41.7-15.9,57.6,0l356.7,356.7c15.9,15.9,15.9,41.7,0,57.6L2008.3,909.4z"/>
			<path class="st7" d="M2005.7,906.9c-15.7,15.7-41.3,15.7-57,0l-353.1-353.1c-15.7-15.8-15.7-41.2,0-57L1739,353.3
				c15.8-15.7,41.2-15.7,57,0l353.1,353.1c15.7,15.8,15.7,41.2,0,57L2005.7,906.9z"/>
			<path class="st8" d="M2003,904.5c-15.6,15.5-40.8,15.5-56.4,0L1597,554.9c-15.5-15.6-15.5-40.8,0-56.4l142-142
				c15.6-15.5,40.8-15.5,56.4,0L2145.1,706c15.5,15.6,15.5,40.8,0,56.4L2003,904.5z"/>
			<path class="st9" d="M2000.4,902c-15.4,15.4-40.4,15.4-55.8,0l-346-346c-15.4-15.4-15.4-40.4,0-55.8l140.6-140.6
				c15.4-15.4,40.4-15.4,55.8,0l346,346c15.4,15.4,15.4,40.4,0,55.8L2000.4,902z"/>
			<path class="st10" d="M1997.7,899.5c-15.3,15.2-40,15.2-55.3,0L1600,557.1c-15.2-15.3-15.2-40,0-55.3l139.1-139.1
				c15.3-15.2,40-15.2,55.3,0l342.5,342.5c15.2,15.3,15.2,40,0,55.3L1997.7,899.5z"/>
			<path class="st11" d="M1995,897.1c-15.1,15.1-39.6,15.1-54.7,0l-338.9-338.9c-15.1-15.1-15.1-39.6,0-54.7l137.7-137.7
				c15.1-15.1,39.6-15.1,54.7,0l338.9,338.9c15.1,15.1,15.1,39.6,0,54.7L1995,897.1z"/>
			<path class="st12" d="M1992.4,894.6c-15,14.9-39.2,14.9-54.1,0l-335.3-335.3c-14.9-15-14.9-39.2,0-54.1l136.2-136.2
				c15-14.9,39.2-14.9,54.1,0l335.3,335.3c14.9,15,14.9,39.2,0,54.1L1992.4,894.6z"/>
			<path class="st13" d="M1989.7,892.1c-14.8,14.8-38.7,14.8-53.5,0l-331.8-331.8c-14.8-14.8-14.8-38.8,0-53.5L1739.2,372
				c14.8-14.8,38.7-14.8,53.5,0l331.8,331.8c14.8,14.8,14.8,38.8,0,53.5L1989.7,892.1z"/>
			<path class="st14" d="M1987,889.7c-14.6,14.6-38.4,14.6-53,0l-328.2-328.2c-14.6-14.6-14.6-38.4,0-53l133.3-133.4
				c14.6-14.6,38.4-14.6,53,0l328.2,328.2c14.6,14.6,14.6,38.4,0,53L1987,889.7z"/>
			<path class="st15" d="M1984.4,887.2c-14.5,14.4-37.9,14.4-52.4,0l-324.7-324.7c-14.4-14.5-14.4-37.9,0-52.4l131.9-131.9
				c14.5-14.4,37.9-14.4,52.4,0l324.7,324.7c14.4,14.5,14.4,37.9,0,52.4L1984.4,887.2z"/>
			<path class="st16" d="M1981.7,884.7c-14.3,14.3-37.5,14.3-51.8,0l-321.1-321.1c-14.3-14.3-14.3-37.5,0-51.8l130.4-130.5
				c14.3-14.3,37.5-14.3,51.8,0l321.1,321.1c14.3,14.3,14.3,37.5,0,51.8L1981.7,884.7z"/>
			<path class="st17" d="M1979,882.3c-14.2,14.1-37.1,14.1-51.2,0l-317.5-317.5c-14.1-14.2-14.1-37.1,0-51.2l129-129
				c14.2-14.1,37.1-14.1,51.2,0L2108,702c14.1,14.2,14.1,37.1,0,51.2L1979,882.3z"/>
			<path class="st18" d="M1976.4,879.8c-14,14-36.7,14-50.7,0l-314-314c-14-14-14-36.7,0-50.7l127.6-127.6c14-14,36.7-14,50.7,0
				l314,314c14,14,14,36.7,0,50.7L1976.4,879.8z"/>
			<path class="st19" d="M1973.7,877.3c-13.8,13.8-36.2,13.8-50.1,0l-310.4-310.4c-13.8-13.8-13.8-36.3,0-50.1l126.1-126.1
				c13.8-13.8,36.3-13.8,50.1,0l310.4,310.4c13.8,13.8,13.8,36.3,0,50.1L1973.7,877.3z"/>
			<path class="st20" d="M1971,874.8c-13.7,13.7-35.8,13.7-49.5,0c0,0,0,0,0,0L1614.7,568c-13.7-13.7-13.7-35.8,0-49.5l124.7-124.7
				c13.7-13.7,35.8-13.7,49.5,0l306.8,306.9c13.7,13.7,13.7,35.8,0,49.5L1971,874.8z"/>
			<path class="st21" d="M1968.4,872.4c-13.5,13.5-35.4,13.5-48.9,0l-303.3-303.3c-13.5-13.5-13.5-35.5,0-49c0,0,0,0,0,0
				l123.2-123.2c13.5-13.5,35.5-13.5,49,0c0,0,0,0,0,0l303.3,303.3c13.5,13.5,13.5,35.4,0,49L1968.4,872.4z"/>
		</g>
		<path class="st22" d="M1959.7,882.1c-13.3,13.2-34.7,13.2-48,0l-330-330c-13.2-13.3-13.2-34.7,0-48L1715.8,370
			c13.3-13.2,34.7-13.2,48,0l330,330c13.2,13.3,13.2,34.7,0,48L1959.7,882.1z"/>
		
			<image style="overflow:visible;enable-background:new    ;" width="540" height="540" xlink:href="FE70319DD0B180B6.png"  transform="matrix(1 0 0 1 1568 356)">
		</image>
		<path class="st23" d="M2086,707.8c8.8,8.9,8.8,23.1,0,32l-134.1,134.1c-8.9,8.8-23.1,8.8-32,0l-330-330c-8.8-8.9-8.8-23.1,0-32
			l134.1-134c8.9-8.8,23.1-8.8,32,0L2086,707.8z"/>
		<g>
			<path class="st0" d="M2007.9,411.1c-16.9,16.8-44.1,16.8-61,0L1568.8,33c-16.8-16.9-16.8-44.1,0-61l153.6-153.6
				c16.9-16.8,44.1-16.8,61,0l378.1,378.1c16.8,16.9,16.8,44.1,0,61L2007.9,411.1z"/>
			<path class="st1" d="M2005.2,408.6c-16.7,16.7-43.7,16.7-60.4,0L1570.3,34.1c-16.7-16.7-16.7-43.7,0-60.4l152.2-152.1
				c16.7-16.7,43.7-16.7,60.4,0L2157.4,196c16.7,16.7,16.7,43.7,0,60.4L2005.2,408.6z"/>
			<path class="st2" d="M2002.5,406.2c-16.5,16.5-43.3,16.5-59.9,0L1571.7,35.2c-16.5-16.5-16.5-43.3,0-59.9l150.7-150.7
				c16.5-16.5,43.3-16.5,59.9,0l370.9,370.9c16.5,16.5,16.5,43.3,0,59.9L2002.5,406.2z"/>
			<path class="st3" d="M1999.9,403.7c-16.4,16.3-42.9,16.3-59.3,0L1573.2,36.3c-16.3-16.4-16.3-42.9,0-59.3l149.3-149.2
				c16.4-16.3,42.9-16.3,59.3,0l367.4,367.4c16.3,16.4,16.3,42.9,0,59.3L1999.9,403.7z"/>
			<path class="st4" d="M1997.2,401.2c-16.2,16.2-42.5,16.2-58.7,0L1574.7,37.4c-16.2-16.2-16.2-42.5,0-58.7l147.8-147.8
				c16.2-16.2,42.5-16.2,58.7,0L2145,194.7c16.2,16.2,16.2,42.5,0,58.7L1997.2,401.2z"/>
			<path class="st5" d="M1994.6,398.8c-16.1,16-42.1,16-58.2,0L1576.1,38.5c-16-16.1-16-42.1,0-58.1L1722.5-166
				c16.1-16,42.1-16,58.1,0l360.3,360.3c16,16.1,16,42.1,0,58.1L1994.6,398.8z"/>
			<path class="st6" d="M1991.9,396.3c-15.9,15.9-41.7,15.9-57.6,0L1577.6,39.6c-15.9-15.9-15.9-41.7,0-57.6l144.9-144.9
				c15.9-15.9,41.7-15.9,57.6,0l356.7,356.7c15.9,15.9,15.9,41.7,0,57.6L1991.9,396.3z"/>
			<path class="st7" d="M1989.2,393.8c-15.7,15.7-41.3,15.7-57,0L1579.1,40.7c-15.7-15.8-15.7-41.2,0-57l143.5-143.5
				c15.8-15.7,41.2-15.7,57,0l353.1,353.1c15.7,15.8,15.7,41.2,0,57L1989.2,393.8z"/>
			<path class="st8" d="M1986.6,391.4c-15.6,15.5-40.8,15.5-56.4,0L1580.6,41.8c-15.6-15.6-15.6-40.8,0-56.4l142-142
				c15.6-15.5,40.8-15.5,56.4,0l349.6,349.5c15.5,15.6,15.5,40.8,0,56.4L1986.6,391.4z"/>
			<path class="st9" d="M1983.9,388.9c-15.4,15.4-40.4,15.4-55.8,0l-346-346c-15.4-15.4-15.5-40.4,0-55.9l140.6-140.6
				c15.4-15.4,40.4-15.4,55.8,0l346,346c15.4,15.4,15.4,40.4,0,55.9L1983.9,388.9z"/>
			<path class="st10" d="M1981.2,386.4c-15.3,15.2-40,15.2-55.3,0L1583.5,44c-15.2-15.3-15.2-40,0-55.3l139.1-139.1
				c15.3-15.2,40-15.2,55.3,0L2120.4,192c15.2,15.3,15.2,40,0,55.3L1981.2,386.4z"/>
			<path class="st11" d="M1978.6,383.9c-15.1,15.1-39.6,15.1-54.7,0L1585,45c-15.1-15.1-15.1-39.6,0-54.7l137.7-137.7
				c15.1-15.1,39.6-15.1,54.7,0l338.9,338.9c15.1,15.1,15.1,39.6,0,54.7L1978.6,383.9z"/>
			<path class="st12" d="M1975.9,381.5c-15,14.9-39.2,14.9-54.1,0L1586.4,46.1c-14.9-15-14.9-39.2,0-54.1l136.2-136.2
				c15-14.9,39.2-14.9,54.1,0l335.3,335.3c14.9,15,14.9,39.2,0,54.1L1975.9,381.5z"/>
			<path class="st13" d="M1973.2,379c-14.8,14.8-38.8,14.8-53.6,0L1587.9,47.2c-14.8-14.8-14.8-38.8,0-53.5l134.8-134.8
				c14.8-14.8,38.8-14.8,53.6,0L2108,190.7c14.8,14.8,14.8,38.8,0,53.6L1973.2,379z"/>
			<path class="st14" d="M1970.6,376.5c-14.6,14.6-38.4,14.6-53,0L1589.4,48.3c-14.6-14.6-14.6-38.4,0-53L1722.7-138
				c14.6-14.6,38.4-14.6,53,0l328.2,328.2c14.6,14.6,14.6,38.4,0,53L1970.6,376.5z"/>
			<path class="st15" d="M1967.9,374.1c-14.5,14.4-37.9,14.4-52.4,0L1590.8,49.4c-14.4-14.5-14.4-37.9,0-52.4l131.9-131.9
				c14.5-14.4,37.9-14.4,52.4,0l324.7,324.6c14.4,14.5,14.4,37.9,0,52.4L1967.9,374.1z"/>
			<path class="st16" d="M1965.2,371.6c-14.3,14.3-37.5,14.3-51.8,0L1592.3,50.5c-14.3-14.3-14.3-37.5,0-51.8l130.4-130.4
				c14.3-14.3,37.5-14.3,51.8,0l321.1,321.1c14.3,14.3,14.3,37.5,0,51.8L1965.2,371.6z"/>
			<path class="st17" d="M1962.6,369.1c-14.2,14.1-37.1,14.1-51.2,0L1593.8,51.6c-14.1-14.2-14.1-37.1,0-51.2l129-129
				c14.2-14.1,37.1-14.1,51.2,0l317.5,317.5c14.1,14.2,14.1,37.1,0,51.2L1962.6,369.1z"/>
			<path class="st18" d="M1959.9,366.7c-14,14-36.7,14-50.7,0l-314-314c-14-14-14-36.7,0-50.7l127.6-127.6c14-14,36.7-14,50.7,0
				l314,314c14,14,14,36.7,0,50.7L1959.9,366.7z"/>
			<path class="st19" d="M1957.2,364.2c-13.8,13.8-36.3,13.8-50.1,0L1596.7,53.8c-13.8-13.8-13.8-36.3,0-50.1l126.1-126.1
				c13.8-13.8,36.3-13.8,50.1,0L2083.4,188c13.8,13.8,13.8,36.3,0,50.1L1957.2,364.2z"/>
			<path class="st20" d="M1954.6,361.7c-13.7,13.7-35.8,13.7-49.5,0c0,0,0,0,0,0L1598.2,54.9c-13.7-13.7-13.7-35.8,0-49.5
				l124.7-124.7c13.7-13.7,35.8-13.7,49.5,0c0,0,0,0,0,0l306.8,306.8c13.7,13.7,13.7,35.8,0,49.5L1954.6,361.7z"/>
			<path class="st21" d="M1951.9,359.2c-13.5,13.5-35.5,13.5-49,0c0,0,0,0,0,0L1599.7,56c-13.5-13.5-13.5-35.4,0-49l123.2-123.2
				c13.5-13.5,35.4-13.5,48.9,0l303.3,303.3c13.5,13.5,13.5,35.4,0,48.9L1951.9,359.2z"/>
		</g>
		<path class="st22" d="M1943.3,369c-13.3,13.2-34.7,13.2-48,0l-330-330c-13.2-13.3-13.2-34.7,0-48l134.1-134.1
			c13.3-13.2,34.7-13.2,48,0l330,330c13.2,13.3,13.2,34.7,0,48L1943.3,369z"/>
		
			<image style="overflow:visible;enable-background:new    ;" width="540" height="540" xlink:href="FE70319DD0B180B7.png"  transform="matrix(1 0 0 1 1551 -157)">
		</image>
		<path class="st23" d="M2069.5,194.7c8.8,8.8,8.8,23.2,0,32l-134.1,134.1c-8.9,8.8-23.1,8.8-32,0l-330-330c-8.8-8.9-8.8-23.1,0-32
			l134.1-134.1c8.9-8.8,23.1-8.8,32,0L2069.5,194.7z"/>
	</g>
</g>
<image style="overflow:visible;" width="1500" height="3000" xlink:href="../../../ncel1.png"  transform="matrix(0.1501 -0.1525 0.1525 0.1501 667.1313 61.3968)">
</image>
<image style="overflow:visible;" width="1500" height="3000" xlink:href="../../../ncel1.png"  transform="matrix(0.1501 -0.1525 0.1525 0.1501 1093.1313 -24.6032)">
</image>
<image style="overflow:visible;" width="1500" height="3000" xlink:href="../../../ncel1.png"  transform="matrix(0.1501 -0.1525 0.1525 0.1501 518.1313 422.3969)">
</image>
<image style="overflow:visible;" width="1500" height="3000" xlink:href="../../../ncel1.png"  transform="matrix(0.1501 -0.1525 0.1525 0.1501 1110.1313 489.3969)">
</image>
<image style="overflow:visible;" width="1500" height="3000" xlink:href="../../../ncel1.png"  transform="matrix(0.1501 -0.1525 0.1525 0.1501 962.1313 854.3969)">
</image>
<image style="overflow:visible;" width="1500" height="3000" xlink:href="../../../ncel1.png"  transform="matrix(0.1501 -0.1525 0.1525 0.1501 503.1313 908.3969)">
</image>
</svg>
