<?xml version="1.0" encoding="utf-8"?>
<!-- Generator: Adobe Illustrator 26.0.1, SVG Export Plug-In . SVG Version: 6.00 Build 0)  -->
<svg version="1.1" id="Layer_1" xmlns="http://www.w3.org/2000/svg" xmlns:xlink="http://www.w3.org/1999/xlink" x="0px" y="0px"
	 viewBox="0 0 1920 1080" style="enable-background:new 0 0 1920 1080;" xml:space="preserve">
<g transform="matrix(0.15, -0.15, 0.15, 0.15, 1052.16, 122.1)">
	
		<image style="overflow:visible;enable-background:new    ;" width="1500" height="3000" id="image" xlink:href="../../../ncel1.png"  transform="matrix(0.1341 -0.1341 0.1341 0.1341 1083.0646 69.1695)">
	</image>
</g>
<g transform="matrix(0.15, -0.15, 0.15, 0.15, 1478.16, 36.1)">
	
		<image style="overflow:visible;enable-background:new    ;" width="1500" height="3000" id="image_00000039122321677453823710000006918137306284437915_" xlink:href="../../../ncel1.png"  transform="matrix(0.1341 -0.1341 0.1341 0.1341 1478.0333 -12.7199)">
	</image>
</g>
<g transform="matrix(0.15, -0.15, 0.15, 0.15, 903.16, 483.1)">
	
		<image style="overflow:visible;enable-background:new    ;" width="1500" height="3000" id="image_00000115476542552564323030000016308504964346359970_" xlink:href="../../../ncel1.png"  transform="matrix(0.1341 -0.1341 0.1341 0.1341 960 411.9398)">
	</image>
</g>
<g transform="matrix(0.15, -0.15, 0.15, 0.15, 1495.16, 550.1)">
	
		<image style="overflow:visible;enable-background:new    ;" width="1500" height="3000" id="image_00000072974071776022630000000015275573369958722997_" xlink:href="../../../ncel1.png"  transform="matrix(0.1341 -0.1341 0.1341 0.1341 1522.3038 471.3773)">
	</image>
</g>
<g transform="matrix(0.15, -0.15, 0.15, 0.15, 1347.16, 915.1)">
	
		<image style="overflow:visible;enable-background:new    ;" width="1500" height="3000" id="image_00000072262015258482927500000003958116085668634499_" xlink:href="../../../ncel1.png"  transform="matrix(0.1341 -0.1341 0.1341 0.1341 1425.536 828.6257)">
	</image>
</g>
<g transform="matrix(0.15, -0.15, 0.15, 0.15, 888.16, 969.1)">
	
		<image style="overflow:visible;enable-background:new    ;" width="1500" height="3000" id="image_00000160913423892151478900000003194895962286606249_" xlink:href="../../../ncel1.png"  transform="matrix(0.1341 -0.1341 0.1341 0.1341 983.5326 860.8604)">
	</image>
</g>
</svg>
