<?xml version="1.0" encoding="UTF-8"?><svg id="Layer_1" xmlns="http://www.w3.org/2000/svg" viewBox="0 0 1755.29 525.18"><defs><style>.cls-1,.cls-2{fill:#fff;}.cls-2{fill-rule:evenodd;}</style></defs><g><path class="cls-1" d="M41.91,521.76v-222.26l-34.92-2.25c-4.66-.5-6.98-2.58-6.98-6.23v-9.73H41.91v-16.21c0-14.64,2.16-28.23,6.49-40.79,4.32-12.56,10.68-23.41,19.08-32.56,8.4-9.14,18.75-16.29,31.06-21.45,12.3-5.15,26.52-7.73,42.66-7.73,11.31,0,22.41,.5,33.3,1.49,10.89,1,21.16,1.66,30.81,2h17.71v355.73h-23.7V182.75c-8.82-.33-18.17-.83-28.06-1.5-9.9-.66-18.92-.99-27.07-.99-12.48,0-23.62,1.95-33.43,5.87-9.82,3.9-18.08,9.56-24.82,16.95-6.74,7.41-11.9,16.34-15.47,26.82-3.58,10.49-5.36,22.21-5.36,35.18v16.21h72.1v17.71H65.86v222.77h-23.95Z"/><path class="cls-1" d="M265.93,387.8v4.74c0,18.64,2.16,35.01,6.49,49.15,4.32,14.13,10.48,25.99,18.46,35.55s17.63,16.75,28.94,21.58c11.31,4.82,23.95,7.23,37.92,7.23,12.48,0,23.28-1.37,32.43-4.12,9.15-2.74,16.84-5.81,23.07-9.22,6.24-3.41,11.19-6.5,14.85-9.24,3.65-2.74,6.32-4.12,7.98-4.12,2.16,0,3.82,.84,4.99,2.5l6.49,7.99c-3.99,4.98-9.27,9.64-15.84,13.97-6.57,4.33-13.89,8.03-21.96,11.09-8.07,3.09-16.71,5.54-25.95,7.37-9.23,1.83-18.5,2.74-27.81,2.74-16.96,0-32.43-2.95-46.4-8.85-13.97-5.91-25.95-14.52-35.92-25.82s-17.67-25.15-23.08-41.54c-5.41-16.38-8.11-35.13-8.11-56.26,0-17.79,2.53-34.21,7.61-49.27,5.07-15.04,12.39-28.02,21.95-38.92,9.56-10.88,21.29-19.41,35.18-25.56,13.88-6.15,29.64-9.24,47.27-9.24,13.97,0,26.94,2.42,38.92,7.24,11.97,4.82,22.37,11.85,31.18,21.08,8.81,9.23,15.75,20.58,20.83,34.05,5.07,13.48,7.61,28.94,7.61,46.41,0,3.65-.5,6.15-1.5,7.47-.99,1.34-2.66,2-4.99,2h-180.61Zm165.65-15.22c0-13.3-1.87-25.23-5.61-35.79-3.74-10.57-9.02-19.51-15.84-26.82-6.82-7.33-14.93-12.93-24.32-16.85-9.4-3.9-19.75-5.86-31.06-5.86-12.81,0-24.28,2-34.43,5.99-10.15,3.99-18.92,9.73-26.32,17.21-7.4,7.49-13.35,16.46-17.84,26.95-4.49,10.48-7.48,22.2-8.98,35.17h164.4Z"/><path class="cls-1" d="M647.12,521.76h-22.7c-2.33,0-4.16-.7-5.49-2.11-1.33-1.42-2.42-2.78-3.24-4.12l-75.34-110.01c-.66,2.99-1.91,5.91-3.74,8.73l-71.85,101.28c-1.17,1.5-2.37,2.91-3.62,4.24s-2.87,1.99-4.86,1.99h-21.45l90.31-126.97-86.81-121.24h22.7c2.33,0,4.08,.49,5.24,1.49,1.16,.99,2.16,2.16,2.99,3.49l72.84,105.03c.33-1.34,.87-2.75,1.62-4.24s1.54-3,2.37-4.5l68.11-96.04c.99-1.5,2.08-2.75,3.24-3.75,1.16-1,2.66-1.49,4.49-1.49h21.7l-86.57,119.74,90.06,128.47Z"/><path class="cls-1" d="M673.06,316.71c10.81-14.63,23.45-26.15,37.92-34.54,14.46-8.4,31.26-12.61,50.39-12.61,14.97,0,28.36,2.74,40.17,8.23,11.81,5.49,21.83,13.39,30.06,23.7,8.24,10.31,14.51,22.99,18.83,38.05,4.32,15.04,6.49,32.14,6.49,51.26,0,20.12-2.42,38.46-7.24,55.01-4.82,16.56-11.85,30.69-21.08,42.41-9.23,11.72-20.5,20.8-33.8,27.19-13.31,6.39-28.53,9.6-45.65,9.6s-32.64-3.37-45.03-10.11c-12.39-6.73-23.08-16.75-32.06-30.05l-1.75,30.68c-.5,4.16-2.75,6.23-6.74,6.23h-14.47V158.79h23.95v157.92Zm0,150.93c9.64,14.3,20.25,24.32,31.8,30.06,11.56,5.74,24.57,8.61,39.04,8.61s27.73-2.66,38.79-7.99c11.06-5.32,20.29-12.93,27.69-22.82,7.39-9.9,12.93-21.92,16.59-36.06,3.66-14.13,5.49-30.02,5.49-47.65,0-34.25-6.82-60.03-20.46-77.33-13.64-17.3-32.77-25.95-57.38-25.95-17.63,0-33.02,4.24-46.15,12.73-13.14,8.48-24.95,20.28-35.42,35.42v130.98Z"/><path class="cls-1" d="M882.61,387.8v4.74c0,18.64,2.16,35.01,6.49,49.15,4.32,14.13,10.48,25.99,18.45,35.55,7.99,9.56,17.63,16.75,28.94,21.58,11.31,4.82,23.96,7.23,37.92,7.23,12.48,0,23.28-1.37,32.43-4.12,9.15-2.74,16.84-5.81,23.07-9.22,6.23-3.41,11.19-6.5,14.84-9.24s6.32-4.12,7.99-4.12c2.15,0,3.82,.84,4.98,2.5l6.49,7.99c-3.99,4.98-9.27,9.64-15.84,13.97-6.58,4.33-13.9,8.03-21.96,11.09-8.07,3.09-16.72,5.54-25.95,7.37-9.23,1.83-18.5,2.74-27.81,2.74-16.96,0-32.43-2.95-46.4-8.85-13.98-5.91-25.95-14.52-35.92-25.82-9.98-11.31-17.67-25.15-23.08-41.54-5.4-16.38-8.1-35.13-8.1-56.26,0-17.79,2.53-34.21,7.6-49.27,5.08-15.04,12.39-28.02,21.96-38.92,9.56-10.88,21.29-19.41,35.17-25.56s29.64-9.24,47.27-9.24c13.98,0,26.94,2.42,38.92,7.24,11.98,4.82,22.37,11.85,31.18,21.08,8.81,9.23,15.75,20.58,20.83,34.05,5.08,13.48,7.61,28.94,7.61,46.41,0,3.65-.5,6.15-1.5,7.47-.99,1.34-2.66,2-4.98,2h-180.61Zm165.64-15.22c0-13.3-1.87-25.23-5.61-35.79-3.74-10.57-9.02-19.51-15.84-26.82-6.82-7.33-14.93-12.93-24.32-16.85-9.4-3.9-19.75-5.86-31.06-5.86-12.81,0-24.28,2-34.43,5.99-10.14,3.99-18.92,9.73-26.31,17.21-7.41,7.49-13.35,16.46-17.85,26.95-4.49,10.48-7.48,22.2-8.97,35.17h164.39Z"/><path class="cls-1" d="M1092.9,387.8v4.74c0,18.64,2.16,35.01,6.49,49.15,4.32,14.13,10.48,25.99,18.46,35.55,7.98,9.56,17.62,16.75,28.94,21.58,11.31,4.82,23.95,7.23,37.91,7.23,12.48,0,23.29-1.37,32.43-4.12,9.15-2.74,16.84-5.81,23.07-9.22,6.24-3.41,11.19-6.5,14.85-9.24,3.65-2.74,6.31-4.12,7.98-4.12,2.16,0,3.83,.84,4.99,2.5l6.49,7.99c-4,4.98-9.28,9.64-15.85,13.97-6.57,4.33-13.89,8.03-21.96,11.09-8.07,3.09-16.71,5.54-25.95,7.37-9.23,1.83-18.49,2.74-27.81,2.74-16.96,0-32.43-2.95-46.4-8.85-13.97-5.91-25.95-14.52-35.92-25.82s-17.67-25.15-23.07-41.54c-5.41-16.38-8.11-35.13-8.11-56.26,0-17.79,2.54-34.21,7.61-49.27,5.07-15.04,12.38-28.02,21.95-38.92,9.56-10.88,21.29-19.41,35.18-25.56,13.88-6.15,29.64-9.24,47.27-9.24,13.97,0,26.94,2.42,38.92,7.24,11.97,4.82,22.36,11.85,31.18,21.08,8.81,9.23,15.75,20.58,20.83,34.05,5.07,13.48,7.6,28.94,7.6,46.41,0,3.65-.5,6.15-1.49,7.47-.99,1.34-2.66,2-4.99,2h-180.61Zm165.65-15.22c0-13.3-1.88-25.23-5.61-35.79-3.75-10.57-9.02-19.51-15.85-26.82-6.82-7.33-14.92-12.93-24.32-16.85-9.4-3.9-19.75-5.86-31.06-5.86-12.8,0-24.28,2-34.42,5.99-10.15,3.99-18.92,9.73-26.32,17.21-7.4,7.49-13.35,16.46-17.83,26.95-4.49,10.48-7.48,22.2-8.98,35.17h164.4Z"/></g><g><path class="cls-1" d="M1474.26,71.36c20.19-2.45,42.65,5.07,54.43,22.53,8.41,12.38,8.41,28.99,0,41.36-11.78,17.45-34.24,24.97-54.43,22.53v-.42c6.53-.89,12.88-2.22,18.87-4.43,11.57-4.16,22.58-11.4,28.96-21.86,10.23-16.83,2.9-35.31-12.35-46.14-4.99-3.64-10.62-6.59-16.62-8.72-5.99-2.2-12.34-3.54-18.87-4.43v-.42h0Z"/><path class="cls-2" d="M1472.59,195.97c-60.25,2.58-108.14-68.71-161.95-101.64-81.18-49.68-110.5,21.56-74.31,62.63,29.6,33.59,119.64,42.82,165.11,42.86,.69,0,1.82,.09,2.5,.25,14.92,3.35,10.13,17.6,.06,20.17-.54,.14-1.42,.2-1.97,.19-49.78-1.3-126.94-9.46-162.81-44.87-8.12-8.02-15.08-18.95-19.3-31.13-8-23.08-6.71-50.08,11.42-66.45,10.36-9.35,27.15-21.71,60.64-13.64,24.56,5.92,44.87,20.58,63.27,34.78,30.24,23.32,55,53.94,82.78,71.96,10.44,6.77,22.59,13.81,34.54,13.89"/><path class="cls-2" d="M1472.41,184.97c11.61-.47,22.13-6.65,32.43-12.37,31.98-17.78,60.13-49.49,94.72-73.48,20.47-14.2,43.06-28.86,70.37-34.78,37.25-8.07,55.91,4.28,67.44,13.64,20.17,16.37,21.6,43.37,12.7,66.45-4.69,12.18-12.43,23.11-21.47,31.13-40.85,36.25-129.77,43.7-181.58,44.88-.33,0-.86-.01-1.19-.04-35.12-3.19-30.21-22.85,.97-20.58,49.13,.13,151.61-8.79,185.01-42.86,40.24-41.07,8.05-111.7-82.64-62.63-59.25,32.05-105.97,98.12-175.71,101.59-.35,.02-.69,.03-1.04,.05"/><path class="cls-1" d="M1474.26,157.81c-20.35,2.43-43-4.93-55.07-22.4-8.63-12.42-8.64-29.26,0-41.68,12.07-17.47,34.71-24.84,55.07-22.4v.42c-6.59,.89-13,2.21-19.06,4.41-16.8,5.82-34.21,19.37-34.33,38.41,.12,19.04,17.52,32.58,34.33,38.41,6.06,2.2,12.47,3.52,19.06,4.41v.42h0Z"/><g><path class="cls-1" d="M1394.02,3.42c-5.93-.32-6.61,8.1-.72,8.74,3.83,.42,8.01,.36,11.06,.59,23.74,1.76,61.53,20.87,59.75,60.22l10.3-1.16c-6.84-38.45-38.54-66.16-80.4-68.38Z"/><path class="cls-1" d="M1545.4,8.19c2.8-.35,6.43-.37,9.66-.78,4.98-.64,4.09-7.77-.92-7.39-42.48,3.22-74.56,32.71-79.73,71.81l10.38,.6c-4.73-39.55,37.25-61.29,60.6-64.23Z"/></g><path class="cls-2" d="M1473,421.6c-27.84,.32-55.67-2.16-74.92-12.18-22.17-11.53-32.94-37.9-17.79-57.81,2.61-3.43,7.97-2.03,8.61,2.26,2.79,18.68,7.76,26.33,26.02,32.21,16.06,5.18,37,6.97,58.08,7.1"/><path class="cls-2" d="M1473.03,393.18c33.21,.21,66.76-3.73,82.04-5.07h0c19.64-1.74,10.08,27.76-6.54,28.78-19.29,1.2-47.39,4.39-75.5,4.71"/><path class="cls-2" d="M1472.98,251.45c.84,.04,1.69,.07,2.53,.1,59.87,2.09,56.23-25.4,36.15-25.4h0c-9.03,0-24.75,.79-39.1,.67"/><path class="cls-2" d="M1472.58,226.83c-11.07-.09-21.34-.73-27.09-2.7-7.64-2.61-11.58-8.25-4.42-19.97,1.5-2.46-1.55-5.15-3.71-3.27-10.15,8.85-13.84,20.53-12.37,29.65,2.5,15.58,25.44,19.88,48.02,20.91"/><path class="cls-2" d="M1472.67,525.13c-18.9-1.31-43.17-29.27-45.48-46.14-.52-3.78,4.01-6.07,6.61-3.32,9.91,10.47,23.7,14.14,38.86,13.03"/><path class="cls-2" d="M1472.09,488.7c2.19-.16,4.41-.42,6.66-.78,13.3-2.11,27.11-5.83,33.78-3.09,6.69,2.75-11.49,39.95-38.81,40.34h0c-.54,0-1.08,0-1.62-.05"/><path class="cls-2" d="M1472.54,471.52c21.06-.22,42.28-2.8,57.29-4.88,13.66-1.9,22.95-30.04,5.29-27.84h0c-14.35,1.78-38.45,5.49-62.44,5.83"/><path class="cls-2" d="M1472.66,444.62c-29.79,.42-59.39-4.37-69.91-24.53-1.95-3.73-7.4-3.05-8.32,1.07-2.5,11.15,3.95,27.35,13.21,35.44,13.69,11.95,39.17,15.19,64.88,14.92"/><path class="cls-2" d="M1473,300.75c-34.53-2.04-68.14-10.16-80.81-33.54-5.91-10.9-.99-27.9,9.28-35.85,1.88-1.46,4.54,.14,4.16,2.52-1.63,9.97,1.05,18.46,3.85,22.66,9.58,14.36,35.8,19.03,63.52,19.83"/><path class="cls-2" d="M1473.03,276.37c31.37,.91,64.65-3.13,77.92-3.68h0c15.72-.65,27.69,23.69,4.72,25.33-17.55,1.25-50.49,4.63-82.64,2.73"/><path class="cls-2" d="M1473.03,362.05c33.29,.65,68.05-1.51,89.25-2.57,24.83-1.24,15.98-30.74-2.77-30.06-19.43,.7-54.14,3-86.48,2.28"/><path class="cls-2" d="M1473,331.7c-30.65-.69-59.17-4.09-70.54-14.14-8.07-7.13-12.34-19.94-11.54-31.83,.21-3.19-3.47-5.09-5.88-3.04-22.41,19.05-16.51,52.92,11.25,67.3,16.36,8.47,45.9,11.47,76.71,12.07"/></g></svg>