<?xml version="1.0" encoding="UTF-8"?><svg id="Layer_1" xmlns="http://www.w3.org/2000/svg" viewBox="0 0 1280 1244.74"><defs><style>.cls-1,.cls-2{fill:#153e51;}.cls-3,.cls-4{fill:#3c88a0;}.cls-4,.cls-2{fill-rule:evenodd;}</style></defs><path class="cls-1" d="M613.92,169.13c64.03-8.75,143,30.95,144.12,102.41-.46,62.29-63.36,101.96-120.48,103.4-7.93,.32-15.85-.02-23.64-.99v-1c7.75-1.03,15.37-2.39,22.84-4.09,27.25-6.29,53.63-18.3,73.81-37.55,21.85-20.42,34-50.54,25.06-79.94-10.61-35.36-43.43-58.49-76.98-70.75-14.4-5.2-29.44-8.45-44.73-10.5v-1h0Z"/><path class="cls-4" d="M609.98,464.48c-142.81,6.12-256.31-162.85-383.84-240.9C33.74,105.85-35.76,274.69,50.01,372.02c70.14,79.61,283.55,101.49,391.34,101.59,1.64,0,4.3,.22,5.92,.58,35.37,7.93,24,41.72,.13,47.81-1.27,.32-3.37,.47-4.66,.44-117.98-3.09-300.86-22.43-385.89-106.36-19.25-19-35.75-44.91-45.75-73.78-18.96-54.7-15.91-118.71,27.08-157.5,24.57-22.17,64.34-51.45,143.73-32.32,58.2,14.04,106.35,48.77,149.97,82.44,71.67,55.28,130.35,127.85,196.19,170.55,24.74,16.05,53.54,32.73,81.85,32.93"/><path class="cls-2" d="M609.55,438.4c27.51-1.12,52.44-15.76,76.87-29.33,75.81-42.14,142.53-117.29,224.5-174.16,48.52-33.66,102.05-68.39,166.79-82.44,88.3-19.12,132.52,10.15,159.85,32.32,47.8,38.79,51.19,102.8,30.11,157.5-11.12,28.86-29.46,54.78-50.88,73.78-96.83,85.93-307.58,103.58-430.37,106.38-.77,.02-2.05-.02-2.82-.09-83.24-7.55-71.6-54.15,2.3-48.77,116.45,.3,359.34-20.82,438.49-101.59,95.38-97.33,19.07-264.74-195.86-148.44-140.44,75.97-251.16,232.56-416.45,240.79-.82,.04-1.64,.08-2.46,.11"/><path class="cls-3" d="M613.92,374.03c-55.92,7.15-123.02-19.63-141.91-76.49-12.05-36.79,3.42-75.29,32.93-98.75,17.5-14.35,39.33-23.69,61.16-28,15.76-3.07,31.96-3.7,47.81-1.74v1c-15.62,2.08-30.8,5.33-45.18,10.45-21.33,7.67-40.9,18.74-56.58,34.84-26.11,26.47-33.26,63.25-13.22,95.54,15.83,25.24,41.95,41.68,69.8,51.7,14.38,5.12,29.56,8.37,45.18,10.45v1h0Z"/><g><path class="cls-3" d="M423.75,8.11c-14.05-.75-15.68,19.19-1.7,20.72,9.08,.99,18.98,.85,26.22,1.39,56.26,4.18,145.84,49.45,141.61,142.72l24.42-2.75c-16.21-91.13-91.34-156.8-190.55-162.08Z"/><path class="cls-1" d="M782.54,19.42c6.63-.84,15.24-.88,22.9-1.86,11.81-1.51,9.7-18.43-2.18-17.52-100.67,7.63-176.71,77.53-188.96,170.2l24.61,1.41c-11.21-93.75,88.29-145.26,143.63-152.23Z"/></g><path class="cls-4" d="M610.95,999.24c-65.99,.77-131.96-5.13-177.57-28.87-52.55-27.34-78.08-89.83-42.16-137.02,6.18-8.12,18.88-4.8,20.4,5.35,6.61,44.27,18.39,62.41,61.68,76.34,38.07,12.27,87.71,16.53,137.65,16.84"/><path class="cls-2" d="M611,931.88c78.72,.49,158.22-8.83,194.45-12.03h0c46.55-4.11,23.9,65.79-15.51,68.22-45.71,2.84-112.33,10.39-178.94,11.17"/><path class="cls-2" d="M610.91,595.97c2,.09,4,.17,6,.24,141.89,4.95,133.28-60.19,85.68-60.19h0c-21.41,0-58.65,1.88-92.67,1.59"/><path class="cls-4" d="M609.96,537.61c-26.25-.22-50.57-1.74-64.2-6.4-18.11-6.18-27.44-19.55-10.49-47.34,3.55-5.82-3.68-12.21-8.8-7.75-24.05,20.97-32.8,48.65-29.33,70.28,5.92,36.94,60.29,47.11,113.81,49.57"/><path class="cls-4" d="M610.15,1244.63c-44.8-3.09-102.33-69.38-107.79-109.35-1.23-8.96,9.51-14.39,15.68-7.87,23.5,24.83,56.18,33.52,92.11,30.88"/><path class="cls-2" d="M608.77,1158.29c5.2-.38,10.46-1,15.78-1.84,31.53-4.99,64.26-13.83,80.07-7.33,15.85,6.51-27.23,94.68-91.99,95.62h0c-1.27,.02-2.55-.02-3.84-.11"/><path class="cls-2" d="M609.86,1117.57c49.93-.53,100.21-6.64,135.78-11.57,32.38-4.5,54.38-71.19,12.53-66h0c-34,4.22-91.13,13.02-147.99,13.81"/><path class="cls-4" d="M610.14,1053.82c-70.6,.99-140.77-10.37-165.69-58.14-4.61-8.84-17.54-7.22-19.73,2.53-5.91,26.42,9.35,64.83,31.32,84,32.45,28.33,92.84,36.01,153.78,35.37"/><path class="cls-4" d="M610.95,712.82c-81.84-4.83-161.51-24.08-191.53-79.48-14.02-25.84-2.34-66.13,22-84.97,4.46-3.45,10.77,.34,9.85,5.96-3.87,23.63,2.5,43.76,9.12,53.7,22.71,34.04,84.86,45.1,150.56,47"/><path class="cls-2" d="M611.02,655.03c74.34,2.15,153.23-7.42,184.69-8.72h0c37.25-1.53,65.64,56.14,11.18,60.04-41.6,2.96-119.67,10.97-195.87,6.47"/><path class="cls-2" d="M611.02,858.12c78.9,1.53,161.3-3.58,211.53-6.1,58.86-2.94,37.87-72.87-6.57-71.25-46.05,1.67-128.31,7.11-204.96,5.39"/><path class="cls-4" d="M610.95,786.17c-72.65-1.63-140.24-9.7-167.18-33.51-19.13-16.91-29.24-47.25-27.35-75.43,.51-7.56-8.23-12.07-13.95-7.21-53.11,45.14-39.14,125.43,26.67,159.51,38.78,20.09,108.8,27.18,181.81,28.6"/></svg>