<?xml version="1.0" encoding="utf-8"?>
<!-- Generator: Adobe Illustrator 26.0.1, SVG Export Plug-In . SVG Version: 6.00 Build 0)  -->
<svg version="1.1" id="Layer_1" xmlns="http://www.w3.org/2000/svg" xmlns:xlink="http://www.w3.org/1999/xlink" x="0px" y="0px"
	 viewBox="0 0 200 200" style="enable-background:new 0 0 200 200;" xml:space="preserve">
<style type="text/css">
	.st0{fill:#37BBA0;}
	.st1{fill:none;}
</style>
<g>
	<path class="st0" d="M185.15,78.63V92.8h-14.53c-1.42-14.23-7.1-27.21-15.69-37.71l10.18-10.18l10.02,10.02l10.02-10.02
		l-30.06-30.07l-10.02,10.02l10.02,10.02L144.9,45.07c-10.5-8.6-23.48-14.27-37.71-15.69V14.85h14.17V0.67H78.85v14.17h14.17v14.53
		c-14.23,1.42-27.21,7.09-37.71,15.69L45.13,34.89l10.02-10.02L45.13,14.85L15.07,44.92l10.02,10.02l10.02-10.02l10.18,10.18
		C36.7,65.59,31.02,78.57,29.6,92.8H15.07V78.63H0.89v42.52h14.17v-14.17H29.6c1.42,14.23,7.1,27.21,15.69,37.71l-10.18,10.18
		l-10.02-10.02l-10.02,10.02l30.06,30.07l10.02-10.02l-10.02-10.02l10.18-10.18c10.5,8.6,23.48,14.27,37.71,15.69v14.53H78.85v14.17
		h42.52v-14.17H107.2V170.4c14.23-1.42,27.21-7.09,37.71-15.69l10.18,10.18l-10.02,10.02l10.02,10.02l30.06-30.07l-10.02-10.02
		l-10.02,10.02l-10.18-10.18c8.6-10.5,14.27-23.48,15.69-37.71h14.53v14.17h14.17V78.63H185.15z M100.11,156.59
		c-31.26,0-56.7-25.43-56.7-56.7s25.43-56.7,56.7-56.7s56.7,25.43,56.7,56.7S131.37,156.59,100.11,156.59z"/>
	<circle class="st0" cx="96.57" cy="68" r="10.63"/>
	<circle class="st0" cx="132" cy="96.35" r="10.63"/>
	<circle class="st0" cx="100.11" cy="99.89" r="7.09"/>
	<circle class="st0" cx="103.65" cy="131.78" r="10.63"/>
	<circle class="st0" cx="68.22" cy="103.43" r="10.63"/>
	<rect x="-13.28" y="-13.5" class="st1" width="226.78" height="226.78"/>
</g>
</svg>
