<?xml version="1.0" encoding="utf-8"?>
<!-- Generator: Adobe Illustrator 26.0.1, SVG Export Plug-In . SVG Version: 6.00 Build 0)  -->
<svg version="1.1" id="Layer_1" xmlns="http://www.w3.org/2000/svg" xmlns:xlink="http://www.w3.org/1999/xlink" x="0px" y="0px"
	 viewBox="0 0 200 200" style="enable-background:new 0 0 200 200;" xml:space="preserve">
<style type="text/css">
	.st0{fill:#37BAA0;}
	.st1{fill:none;}
</style>
<g>
	<path class="st0" d="M100.01,12.88c17.8,0,32.22,14.43,32.22,32.22s-14.43,32.22-32.22,32.22S67.79,62.9,67.79,45.1
		C67.8,27.32,82.22,12.91,100.01,12.88 M100.01,0C75.09,0,54.89,20.2,54.89,45.1s20.2,45.1,45.11,45.1s45.1-20.2,45.1-45.1
		S124.92,0,100.01,0z"/>
	<path class="st0" d="M200,199.52h-19.94v-41.47c-0.04-22.89-22.33-41.43-49.86-41.47H70.38c-27.52,0.02-49.82,18.58-49.86,41.47
		v41.47H0.57v-41.47C0.62,126,31.84,100.03,70.37,100h59.82c38.52,0.03,69.75,26,69.79,58.05v41.47H200z"/>
	
		<rect id="_x3C_Transparent_Rectangle_x3E__00000011718548491116945240000013787766569099106743_" x="-74.6" y="-26" class="st1" width="240.56" height="240.56"/>
</g>
</svg>
