<?xml version="1.0" encoding="utf-8"?>
<!-- Generator: Adobe Illustrator 26.0.1, SVG Export Plug-In . SVG Version: 6.00 Build 0)  -->
<svg version="1.1" id="Layer_1" xmlns="http://www.w3.org/2000/svg" xmlns:xlink="http://www.w3.org/1999/xlink" x="0px" y="0px"
	 viewBox="0 0 200 200" style="enable-background:new 0 0 200 200;" xml:space="preserve">
<style type="text/css">
	.st0{fill:#37BAA0;}
	.st1{fill:none;}
</style>
<g>
	<path class="st0" d="M152.67,190.97c-21.74,0-39.42-17.68-39.42-39.42c0-3.4,0.47-6.81,1.39-10.16L57.72,84.48
		c-3.36,0.92-6.76,1.38-10.16,1.38c-21.74,0-39.42-17.68-39.42-39.42c0-4.82,0.93-9.65,2.78-14.35l3.66-9.34l21.76,21.76
		c2.48,2.48,6.81,2.48,9.29,0c1.24-1.24,1.93-2.89,1.93-4.65c0-1.75-0.68-3.4-1.92-4.64L23.86,13.46l9.35-3.66
		c4.7-1.84,9.52-2.77,14.34-2.77c21.74,0,39.42,17.68,39.42,39.42c0,3.4-0.47,6.81-1.39,10.16l56.92,56.92
		c3.36-0.92,6.76-1.38,10.16-1.38c21.74,0,39.42,17.68,39.42,39.42c0,4.82-0.93,9.65-2.78,14.35l-3.66,9.34l-21.76-21.76
		c-2.48-2.48-6.81-2.48-9.29,0c-1.24,1.24-1.93,2.89-1.93,4.65s0.68,3.4,1.92,4.64l21.76,21.76l-9.34,3.66
		C162.32,190.04,157.49,190.97,152.67,190.97z M61.11,69.28l68.72,68.73l-1.57,4c-1.24,3.16-1.87,6.37-1.87,9.55
		c0,13.94,10.91,25.38,24.64,26.23l-5.72-5.72c-3.72-3.72-5.77-8.67-5.77-13.93c0-5.27,2.05-10.22,5.77-13.94
		c7.44-7.44,20.42-7.45,27.87,0l5.72,5.72c-0.85-13.73-12.29-24.64-26.23-24.64c-3.17,0-6.39,0.63-9.55,1.87l-4,1.57L70.4,59.99
		l1.57-4c1.24-3.16,1.87-6.37,1.87-9.55c0-13.94-10.91-25.38-24.63-26.23l5.72,5.72c3.72,3.72,5.77,8.67,5.77,13.93
		s-2.05,10.22-5.77,13.94c-7.44,7.44-20.42,7.45-27.87,0l-5.72-5.72c0.85,13.73,12.29,24.64,26.23,24.64c3.18,0,6.39-0.63,9.55-1.87
		L61.11,69.28z"/>
	<g>
		<path class="st0" d="M186.32,12.61c-7.44-7.45-20.43-7.45-27.87,0l-49.14,49.14l9.29,9.29l49.14-49.14c2.48-2.48,6.81-2.48,9.29,0
			c2.56,2.56,2.56,6.73,0,9.29l-49.14,49.14l9.29,9.29l49.14-49.14C194.01,32.8,194.01,20.29,186.32,12.61z"/>
	</g>
	<path class="st0" d="M53.56,154.84l27.97-27.97l-9.29-9.29l-27.97,27.97l-5.21-5.21c-2.57-2.57-6.72-2.57-9.29,0L3.49,166.62
		c-2.57,2.57-2.57,6.72,0,9.29l19.71,19.71c1.28,1.28,2.96,1.92,4.64,1.92s3.36-0.64,4.64-1.92l26.28-26.28
		c2.57-2.57,2.57-6.72,0-9.29L53.56,154.84z M27.85,181.68l-10.42-10.42l16.99-16.99l10.42,10.42L27.85,181.68z"/>
	<rect x="-5" y="-6.11" class="st1" width="210.23" height="210.23"/>
</g>
</svg>
