<?xml version="1.0" encoding="utf-8"?>
<!-- Generator: Adobe Illustrator 26.0.1, SVG Export Plug-In . SVG Version: 6.00 Build 0)  -->
<svg version="1.1" id="Layer_1" xmlns="http://www.w3.org/2000/svg" xmlns:xlink="http://www.w3.org/1999/xlink" x="0px" y="0px"
	 viewBox="0 0 200 200" style="enable-background:new 0 0 200 200;" xml:space="preserve">
<style type="text/css">
	.st0{fill:#37BAA0;}
	.st1{fill:none;}
</style>
<g>
	<path class="st0" d="M80.59,113.28c-19.76,0-35.84-16.08-35.84-35.84s16.08-35.84,35.84-35.84s35.84,16.08,35.84,35.84
		S100.36,113.28,80.59,113.28z M80.59,55.93c-11.86,0-21.51,9.65-21.51,21.51s9.65,21.51,21.51,21.51s21.51-9.65,21.51-21.51
		S92.45,55.93,80.59,55.93z"/>
	<path class="st0" d="M80.59,199.31l-60.47-71.32c-0.34-0.41-2.5-3.24-2.5-3.24C7.22,110.94,1.73,94.6,1.73,77.44
		c0-43.47,35.38-78.86,78.86-78.86s78.86,35.39,78.86,78.86c0,17.16-5.49,33.5-15.88,47.3l-0.01,0.02c0,0-2.15,2.83-2.47,3.21
		L80.59,199.31z M29.07,116.12c0.01,0.01,1.67,2.21,2.05,2.68l49.47,58.35l49.54-58.43c0.32-0.4,2-2.62,2-2.62
		c8.5-11.29,12.98-24.64,12.98-38.66c0-35.57-28.95-64.52-64.52-64.52S16.07,41.87,16.07,77.44
		C16.07,91.46,20.57,104.82,29.07,116.12L29.07,116.12z"/>
	<rect x="-34.11" y="-15.76" class="st1" width="229.41" height="229.41"/>
</g>
</svg>
