<?xml version="1.0" encoding="utf-8"?>
<!-- Generator: Adobe Illustrator 26.0.1, SVG Export Plug-In . SVG Version: 6.00 Build 0)  -->
<svg version="1.1" id="Layer_1" xmlns="http://www.w3.org/2000/svg" xmlns:xlink="http://www.w3.org/1999/xlink" x="0px" y="0px"
	 viewBox="0 0 200 200" style="enable-background:new 0 0 200 200;" xml:space="preserve">
<style type="text/css">
	.st0{fill:#37BAA0;}
	.st1{fill:none;}
	.st2{fill:#37BAA0;stroke:#37BAA0;stroke-miterlimit:10;}
</style>
<g>
	
		<rect x="29.52" y="126.27" transform="matrix(0.7071 -0.7071 0.7071 0.7071 -74.2937 86.5284)" class="st0" width="75.56" height="13.36"/>
	<path class="st0" d="M100.7,199.73c-0.83,0-1.66-0.15-2.46-0.47c-2.23-0.88-3.82-2.89-4.15-5.26l-6.68-46.75l13.23-1.89l5.02,35.18
		l21.76-17.4v-50.22c0-1.77,0.7-3.47,1.96-4.72L156.56,81c11.35-11.35,17.6-26.45,17.6-42.5V26.09h-12.41
		c-16.06,0-31.15,6.25-42.5,17.6L92.06,70.88c-1.25,1.25-2.95,1.96-4.72,1.96H37.12l-17.4,21.76l35.17,5.03L53,112.84l-46.75-6.68
		c-2.37-0.34-4.38-1.92-5.26-4.15c-0.88-2.23-0.5-4.76,0.99-6.63l26.71-33.39c1.27-1.58,3.19-2.51,5.22-2.51h50.66l25.23-25.23
		c13.87-13.88,32.32-21.52,51.95-21.52h12.41c7.36,0,13.36,5.99,13.36,13.36v12.41c0,19.62-7.64,38.07-21.52,51.95l-25.23,25.23
		v50.66c0,2.03-0.92,3.95-2.5,5.21l-33.39,26.71C103.66,199.23,102.19,199.73,100.7,199.73z"/>
	
		<rect id="_x3C_Transparent_Rectangle_x3E__00000135679152894772945290000000537344545510638518_" x="-12.84" y="-0.63" class="st1" width="213.72" height="213.72"/>
	<path class="st2" d="M146.3,43.29c5.31,0,9.61,4.31,9.61,9.61s-4.31,9.61-9.61,9.61c-5.31,0-9.61-4.3-9.61-9.61
		C136.69,47.6,140.99,43.3,146.3,43.29 M155.91,52.9c0,5.31-4.3,9.61-9.61,9.61c-5.31,0-9.61-4.3-9.61-9.61s4.3-9.61,9.61-9.61
		C151.6,43.29,155.91,47.59,155.91,52.9z"/>
</g>
</svg>
