<?xml version="1.0" encoding="utf-8"?>
<!-- Generator: Adobe Illustrator 26.0.1, SVG Export Plug-In . SVG Version: 6.00 Build 0)  -->
<svg version="1.1" id="Layer_1" xmlns="http://www.w3.org/2000/svg" xmlns:xlink="http://www.w3.org/1999/xlink" x="0px" y="0px"
	 viewBox="0 0 200 200" style="enable-background:new 0 0 200 200;" xml:space="preserve">
<style type="text/css">
	.st0{fill:#37BAA0;}
	.st1{fill:none;}
</style>
<g>
	<path class="st0" d="M180.59,105.59c0.11-1.77,0.25-3.54,0.23-5.34c-0.02-1.81-0.11-3.62-0.26-5.41l13.85-11.98
		c5.16-4.47,6.35-11.87,2.82-17.7l-17.44-28.83c-2.7-4.45-7.57-7.03-12.66-7.02c-1.55,0.01-3.11,0.26-4.64,0.77l-17.64,5.89
		c-3.06-1.98-6.25-3.76-9.59-5.33l-3.82-17.78c-1.43-6.6-7.42-11.34-14.36-11.3L82.79,1.7c-6.93,0.02-12.84,4.82-14.16,11.42
		l-3.48,17.83c-3.33,1.6-6.56,3.35-9.59,5.36L37.92,30.6c-1.54-0.5-3.11-0.73-4.66-0.74c-5.08,0.02-9.9,2.65-12.52,7.11L3.83,65.94
		c-3.41,5.85-2.09,13.25,3.15,17.67l14.16,11.94c-0.11,1.77-0.25,3.54-0.23,5.34c0.02,1.81,0.11,3.62,0.26,5.41L7.32,118.3
		c-5.16,4.47-6.35,11.87-2.82,17.7l17.44,28.83c2.7,4.45,7.57,7.03,12.66,7.02c1.55-0.01,3.11-0.26,4.64-0.77l17.64-5.89
		c3.06,1.98,6.25,3.76,9.59,5.33l3.82,17.78c1.43,6.6,7.42,11.34,14.36,11.3l34.3-0.14c6.93-0.02,12.84-4.82,14.16-11.42l3.48-17.8
		c3.33-1.6,6.56-3.35,9.59-5.36l17.64,5.71c1.54,0.5,3.11,0.73,4.66,0.74c5.08-0.02,9.9-2.65,12.52-7.11l16.88-28.96
		c3.41-5.85,2.09-13.25-3.15-17.67L180.59,105.59z M168.37,157.12l-24.99-8.09c-5.79,4.8-12.5,8.56-19.61,11.14l-4.92,25.11
		l-34.3,0.14l-5.4-25.07c-7.11-2.47-13.89-6.35-19.69-11.02l-24.97,8.34l-17.42-28.83l19.64-17.01c-1.4-7.37-1.54-14.72-0.27-22.1
		L16.5,72.95l16.88-28.96l24.99,8.09c5.79-4.8,12.5-8.56,19.61-11.14l4.92-25.11l34.3-0.14l5.4,25.07
		c7.11,2.47,13.89,6.35,19.69,11.02l24.97-8.34l17.42,28.83l-19.64,17.01c1.4,7.37,1.54,14.72,0.27,22.1l19.92,16.79L168.37,157.12z
		"/>
	<path class="st0" d="M101.27,142.97c-24.45,0.1-43.79-18.44-44.01-42.22c-0.22-23.77,18.75-42.48,43.21-42.57
		c24.46-0.09,43.79,18.44,44.01,42.22C144.7,124.15,125.73,142.86,101.27,142.97z M100.61,72.3c-16.57,0.07-28.96,12.28-28.8,28.39
		s12.78,28.21,29.34,28.14s28.96-12.28,28.8-28.39C129.79,84.34,117.17,72.23,100.61,72.3z"/>
	<polygon id="_x3C_Transparent_Rectangle_x3E__00000149362604541690444160000008649160750485756294_" class="st1" points="
		-16.5,-12 216.09,-12.97 218.25,213.15 -14.34,214.13 	"/>
</g>
</svg>
