<?xml version="1.0" encoding="utf-8"?>
<!-- Generator: Adobe Illustrator 26.0.1, SVG Export Plug-In . SVG Version: 6.00 Build 0)  -->
<svg version="1.1" id="Layer_1" xmlns="http://www.w3.org/2000/svg" xmlns:xlink="http://www.w3.org/1999/xlink" x="0px" y="0px"
	 viewBox="0 0 200 200" style="enable-background:new 0 0 200 200;" xml:space="preserve">
<style type="text/css">
	.st0{fill:#37BAA0;stroke:#37BAA0;stroke-width:5;stroke-miterlimit:10;}
</style>
<path class="st0" d="M146.68,135.9c-11.93-0.02-21.58-9.7-21.56-21.63c0.01-3.88,1.06-7.69,3.05-11.03H99.8
	c-1.77,0-3.21-1.44-3.21-3.21c0,0,0-0.01,0-0.01v-31.2c-0.09-1.77,1.27-3.28,3.05-3.37c1.77-0.09,3.28,1.27,3.37,3.05
	c0.01,0.11,0.01,0.22,0,0.33v27.96h32.15c1.78,0.01,3.21,1.45,3.2,3.23c0,0.96-0.44,1.87-1.18,2.48c-6.51,5.25-7.53,14.79-2.28,21.3
	c5.25,6.51,14.79,7.53,21.3,2.28c6.51-5.25,7.53-14.79,2.28-21.3c-0.68-0.84-1.44-1.61-2.28-2.28c-1.38-1.11-1.6-3.13-0.49-4.51
	c0.61-0.76,1.54-1.2,2.51-1.2h32.14V17.24c0-4.31-3.49-7.8-7.8-7.81h-79.55v28c0.09,1.77-1.27,3.28-3.05,3.37
	c-1.77,0.09-3.28-1.27-3.37-3.05c-0.01-0.11-0.01-0.22,0-0.33V6.22c0-1.77,1.43-3.21,3.2-3.21c0,0,0.01,0,0.01,0h82.76
	c7.85,0.01,14.22,6.37,14.23,14.23v82.76c0,1.78-1.44,3.21-3.21,3.21H165.2c6.09,10.31,2.66,23.6-7.65,29.69
	c-3.19,1.88-6.81,2.92-10.51,3H146.68z"/>
<path class="st0" d="M182.56,196.99H99.8c-1.77,0-3.21-1.44-3.21-3.21c0,0,0-0.01,0-0.01v-28.37c-10.23,6.14-23.49,2.82-29.63-7.41
	s-2.82-23.49,7.41-29.63c6.84-4.1,15.38-4.1,22.22,0V100c0-1.77,1.44-3.21,3.21-3.21l0,0h33.55c1.77-0.09,3.28,1.27,3.37,3.05
	c0.09,1.77-1.27,3.28-3.05,3.37c-0.11,0.01-0.22,0.01-0.33,0h-30.34v32.15c0.01,1.77-1.42,3.21-3.19,3.22c-0.98,0-1.9-0.44-2.51-1.2
	c-5.29-6.46-14.8-7.41-21.26-2.12c-6.46,5.29-7.41,14.8-2.12,21.26c0.36,0.44,0.74,0.86,1.15,1.25c2.89,2.83,6.81,4.37,10.86,4.27
	c4.42-0.14,8.57-2.2,11.35-5.64c1.11-1.38,3.13-1.6,4.51-0.49c0.76,0.61,1.2,1.54,1.2,2.51v32.14h79.55c4.31,0,7.79-3.49,7.8-7.8
	v-79.55H159.6c-1.77,0.09-3.28-1.27-3.37-3.05c-0.09-1.77,1.27-3.28,3.05-3.37c0.11-0.01,0.22-0.01,0.33,0h33.95
	c1.77,0,3.21,1.43,3.21,3.21v82.76C196.76,190.61,190.41,196.97,182.56,196.99z"/>
<path class="st0" d="M99.8,196.99H17.03c-7.85-0.01-14.21-6.37-14.22-14.23V100c0-1.77,1.44-3.21,3.21-3.21c0,0,0.01,0,0.01,0h28.35
	c-6.14-10.23-2.82-23.49,7.41-29.63s23.49-2.82,29.63,7.41c4.1,6.84,4.1,15.38,0,22.22h28.36c1.77,0,3.21,1.43,3.21,3.2
	c0,0,0,0.01,0,0.01v33.55c0.09,1.77-1.27,3.28-3.05,3.37c-1.77,0.09-3.28-1.27-3.37-3.05c-0.01-0.11-0.01-0.22,0-0.33v-30.34H64.44
	c-1.77,0.01-3.21-1.42-3.22-3.19c0-0.98,0.44-1.9,1.2-2.51c6.52-5.25,7.55-14.79,2.29-21.31S49.92,68.65,43.4,73.9
	s-7.55,14.79-2.29,21.31c0.68,0.84,1.45,1.61,2.29,2.29c1.38,1.11,1.6,3.13,0.49,4.51c-0.61,0.76-1.54,1.2-2.51,1.2H9.24v79.55
	c0,4.3,3.49,7.79,7.79,7.8h79.56v-30.73c-0.09-1.77,1.27-3.28,3.05-3.37c1.77-0.09,3.28,1.27,3.37,3.05c0.01,0.11,0.01,0.22,0,0.33
	v33.95C103.01,195.56,101.57,196.99,99.8,196.99z"/>
<path class="st0" d="M99.8,103.22H66.25c-1.78,0-3.21-1.44-3.21-3.22c0-1.77,1.44-3.21,3.21-3.21h30.34V64.65
	c0-1.78,1.44-3.21,3.22-3.21c0.96,0,1.88,0.44,2.49,1.18c5.25,6.51,14.79,7.53,21.3,2.28c6.51-5.25,7.53-14.79,2.28-21.3
	c-5.25-6.51-14.79-7.53-21.3-2.28c-0.84,0.68-1.61,1.44-2.28,2.28c-1.11,1.38-3.13,1.6-4.51,0.49c-0.76-0.61-1.2-1.53-1.2-2.5V9.44
	H17.03c-4.3,0.01-7.79,3.5-7.79,7.8v79.55h30.73c1.78,0,3.21,1.44,3.21,3.22c0,1.77-1.44,3.21-3.21,3.21H6.03
	c-1.78,0-3.21-1.44-3.21-3.21V17.24c0-7.85,6.37-14.22,14.22-14.24H99.8c1.78,0,3.21,1.44,3.21,3.21c0,0,0,0,0,0v28.35
	c10.23-6.13,23.49-2.81,29.62,7.42c6.13,10.23,2.81,23.49-7.42,29.62c-6.83,4.1-15.37,4.1-22.21,0v28.36
	c0.02,1.78-1.41,3.23-3.18,3.25C99.82,103.22,99.81,103.22,99.8,103.22z"/>
</svg>
