<?xml version="1.0" encoding="UTF-8"?><svg id="Layer_1" xmlns="http://www.w3.org/2000/svg" viewBox="0 0 1280 366.22"><defs><style>.cls-1{fill:#153e51;}.cls-2{fill:#3c88a0;}</style></defs><path class="cls-1" d="M41.91,362.97V140.71l-34.92-2.25C2.32,137.96,0,135.88,0,132.22v-9.73H41.91v-16.21c0-14.64,2.16-28.23,6.49-40.79s10.68-23.41,19.08-32.56c8.4-9.14,18.75-16.29,31.06-21.45,12.3-5.15,26.52-7.73,42.66-7.73,11.31,0,22.41,.5,33.3,1.49,10.89,1,21.16,1.66,30.81,2h17.71V362.97h-23.7V23.96c-8.82-.33-18.17-.83-28.06-1.5-9.9-.66-18.92-.99-27.07-.99-12.48,0-23.62,1.95-33.43,5.87-9.82,3.9-18.08,9.56-24.82,16.95-6.74,7.41-11.9,16.34-15.47,26.82-3.58,10.49-5.36,22.21-5.36,35.18v16.21h72.1v17.71H65.86v222.77h-23.95Z"/><path class="cls-1" d="M265.93,229.01v4.74c0,18.64,2.16,35.01,6.49,49.15,4.32,14.13,10.48,25.99,18.46,35.55s17.63,16.75,28.94,21.58c11.31,4.82,23.95,7.23,37.92,7.23,12.48,0,23.28-1.37,32.43-4.12,9.15-2.74,16.84-5.81,23.07-9.22,6.24-3.41,11.19-6.5,14.85-9.24,3.65-2.74,6.32-4.12,7.98-4.12,2.16,0,3.82,.84,4.99,2.5l6.49,7.99c-3.99,4.98-9.27,9.64-15.84,13.97-6.57,4.33-13.89,8.03-21.96,11.09-8.07,3.09-16.71,5.54-25.95,7.37-9.23,1.83-18.5,2.74-27.81,2.74-16.96,0-32.43-2.95-46.4-8.85-13.97-5.91-25.95-14.52-35.92-25.82-9.98-11.31-17.67-25.15-23.08-41.54-5.41-16.38-8.11-35.13-8.11-56.26,0-17.79,2.53-34.21,7.61-49.27,5.07-15.04,12.39-28.02,21.95-38.92,9.56-10.88,21.29-19.41,35.18-25.56,13.88-6.15,29.64-9.24,47.27-9.24,13.97,0,26.94,2.42,38.92,7.24,11.97,4.82,22.37,11.85,31.18,21.08,8.81,9.23,15.75,20.58,20.83,34.05,5.07,13.48,7.61,28.94,7.61,46.41,0,3.65-.5,6.15-1.5,7.47-.99,1.34-2.66,2-4.99,2h-180.61Zm165.65-15.22c0-13.3-1.87-25.23-5.61-35.79-3.74-10.57-9.02-19.51-15.84-26.82-6.82-7.33-14.93-12.93-24.32-16.85-9.4-3.9-19.75-5.86-31.06-5.86-12.81,0-24.28,2-34.43,5.99-10.15,3.99-18.92,9.73-26.32,17.21-7.4,7.49-13.35,16.46-17.84,26.95-4.49,10.48-7.48,22.2-8.98,35.17h164.4Z"/><path class="cls-1" d="M647.12,362.97h-22.7c-2.33,0-4.16-.7-5.49-2.11-1.33-1.42-2.42-2.78-3.24-4.12l-75.34-110.01c-.66,2.99-1.91,5.91-3.74,8.73l-71.85,101.28c-1.17,1.5-2.37,2.91-3.62,4.24s-2.87,1.99-4.86,1.99h-21.45l90.31-126.97-86.81-121.24h22.7c2.33,0,4.08,.49,5.24,1.49,1.16,.99,2.16,2.16,2.99,3.49l72.84,105.03c.33-1.34,.87-2.75,1.62-4.24s1.54-3,2.37-4.5l68.11-96.04c.99-1.5,2.08-2.75,3.24-3.75,1.16-1,2.66-1.49,4.49-1.49h21.7l-86.57,119.74,90.06,128.47Z"/><path class="cls-2" d="M673.06,157.92c10.81-14.63,23.45-26.15,37.92-34.54,14.46-8.4,31.26-12.61,50.39-12.61,14.97,0,28.36,2.74,40.17,8.23,11.81,5.49,21.83,13.39,30.06,23.7,8.24,10.31,14.51,22.99,18.83,38.05,4.32,15.04,6.49,32.14,6.49,51.26,0,20.12-2.42,38.46-7.24,55.01-4.82,16.56-11.85,30.69-21.08,42.41-9.23,11.72-20.5,20.8-33.8,27.19-13.31,6.39-28.53,9.6-45.65,9.6s-32.64-3.37-45.03-10.11c-12.39-6.73-23.08-16.75-32.06-30.05l-1.75,30.68c-.5,4.16-2.75,6.23-6.74,6.23h-14.47V0h23.95V157.92Zm0,150.93c9.64,14.3,20.25,24.32,31.8,30.06,11.56,5.74,24.57,8.61,39.04,8.61s27.73-2.66,38.79-7.99c11.06-5.32,20.29-12.93,27.69-22.82,7.39-9.9,12.93-21.92,16.59-36.06,3.66-14.13,5.49-30.02,5.49-47.65,0-34.25-6.82-60.03-20.46-77.33-13.64-17.3-32.77-25.95-57.38-25.95-17.63,0-33.02,4.24-46.15,12.73-13.14,8.48-24.95,20.28-35.42,35.42v130.98Z"/><path class="cls-2" d="M882.61,229.01v4.74c0,18.64,2.16,35.01,6.49,49.15,4.32,14.13,10.48,25.99,18.45,35.55,7.99,9.56,17.63,16.75,28.94,21.58,11.31,4.82,23.96,7.23,37.92,7.23,12.48,0,23.28-1.37,32.43-4.12,9.15-2.74,16.84-5.81,23.07-9.22,6.23-3.41,11.19-6.5,14.84-9.24s6.32-4.12,7.99-4.12c2.15,0,3.82,.84,4.98,2.5l6.49,7.99c-3.99,4.98-9.27,9.64-15.84,13.97-6.58,4.33-13.9,8.03-21.96,11.09-8.07,3.09-16.72,5.54-25.95,7.37-9.23,1.83-18.5,2.74-27.81,2.74-16.96,0-32.43-2.95-46.4-8.85-13.98-5.91-25.95-14.52-35.92-25.82-9.98-11.31-17.67-25.15-23.08-41.54-5.4-16.38-8.1-35.13-8.1-56.26,0-17.79,2.53-34.21,7.6-49.27,5.08-15.04,12.39-28.02,21.96-38.92,9.56-10.88,21.29-19.41,35.17-25.56,13.89-6.15,29.64-9.24,47.27-9.24,13.98,0,26.94,2.42,38.92,7.24,11.98,4.82,22.37,11.85,31.18,21.08,8.81,9.23,15.75,20.58,20.83,34.05,5.08,13.48,7.61,28.94,7.61,46.41,0,3.65-.5,6.15-1.5,7.47-.99,1.34-2.66,2-4.98,2h-180.61Zm165.64-15.22c0-13.3-1.87-25.23-5.61-35.79-3.74-10.57-9.02-19.51-15.84-26.82-6.82-7.33-14.93-12.93-24.32-16.85-9.4-3.9-19.75-5.86-31.06-5.86-12.81,0-24.28,2-34.43,5.99-10.14,3.99-18.92,9.73-26.31,17.21-7.41,7.49-13.35,16.46-17.85,26.95-4.49,10.48-7.48,22.2-8.97,35.17h164.39Z"/><path class="cls-2" d="M1092.9,229.01v4.74c0,18.64,2.16,35.01,6.49,49.15,4.32,14.13,10.48,25.99,18.46,35.55,7.98,9.56,17.62,16.75,28.94,21.58,11.31,4.82,23.95,7.23,37.91,7.23,12.48,0,23.29-1.37,32.43-4.12,9.15-2.74,16.84-5.81,23.07-9.22,6.24-3.41,11.19-6.5,14.85-9.24,3.65-2.74,6.31-4.12,7.98-4.12,2.16,0,3.83,.84,4.99,2.5l6.49,7.99c-4,4.98-9.28,9.64-15.85,13.97-6.57,4.33-13.89,8.03-21.96,11.09-8.07,3.09-16.71,5.54-25.95,7.37-9.23,1.83-18.49,2.74-27.81,2.74-16.96,0-32.43-2.95-46.4-8.85-13.97-5.91-25.95-14.52-35.92-25.82s-17.67-25.15-23.07-41.54c-5.41-16.38-8.11-35.13-8.11-56.26,0-17.79,2.54-34.21,7.61-49.27,5.07-15.04,12.38-28.02,21.95-38.92,9.56-10.88,21.29-19.41,35.18-25.56,13.88-6.15,29.64-9.24,47.27-9.24,13.97,0,26.94,2.42,38.92,7.24,11.97,4.82,22.36,11.85,31.18,21.08,8.81,9.23,15.75,20.58,20.83,34.05,5.07,13.48,7.6,28.94,7.6,46.41,0,3.65-.5,6.15-1.49,7.47-.99,1.34-2.66,2-4.99,2h-180.61Zm165.65-15.22c0-13.3-1.88-25.23-5.61-35.79-3.75-10.57-9.02-19.51-15.85-26.82-6.82-7.33-14.92-12.93-24.32-16.85-9.4-3.9-19.75-5.86-31.06-5.86-12.8,0-24.28,2-34.42,5.99-10.15,3.99-18.92,9.73-26.32,17.21-7.4,7.49-13.35,16.46-17.83,26.95-4.49,10.48-7.48,22.2-8.98,35.17h164.4Z"/></svg>